<svg xmlns="http://www.w3.org/2000/svg" viewBox="0 0 427.8 355.4">
<path d="M222.92,99.95 L220.05,99.22 L220.78,102.08 C221.62,105.38 217.16,107.24 215.43,104.32 L213.90,101.79 L212.39,104.33 C210.68,107.25 206.20,105.41 207.04,102.12 L207.75,99.25 L204.89,99.98 C201.61,100.84 199.73,96.36 202.65,94.62 L205.20,93.10 L202.64,91.59 C199.71,89.88 201.56,85.40 204.85,86.22 L207.72,86.95 L206.99,84.08 C206.13,80.80 210.61,78.93 212.34,81.84 L213.87,84.39 L215.38,81.84 C217.09,78.91 221.57,80.77 220.73,84.05 L220.02,86.92 L222.88,86.17 C226.16,85.33 228.04,89.81 225.12,91.54 L222.57,93.07 L225.13,94.56 C228.05,96.29 226.20,100.77 222.92,99.95 M236.65,88.68 L251.99,79.52 C252.93,78.96 253.30,77.83 252.88,76.82 C252.47,75.83 251.39,75.29 250.34,75.56 L233.04,80.03 C231.28,80.47 229.48,79.98 228.20,78.71 C226.93,77.44 226.42,75.63 226.86,73.88 L231.23,56.56 C231.50,55.50 230.96,54.43 229.98,54.01 C228.94,53.59 227.83,53.97 227.28,54.93 L218.17,70.32 C217.27,71.86 215.65,72.80 213.84,72.80 C212.03,72.80 210.41,71.88 209.47,70.34 L200.32,54.99 C199.76,54.05 198.63,53.67 197.62,54.10 C197.35,54.20 197.09,54.37 196.92,54.56 C196.39,55.09 196.17,55.86 196.36,56.63 L200.83,73.94 C201.27,75.69 200.78,77.50 199.51,78.79 L199.49,78.79 C198.22,80.06 196.43,80.55 194.68,80.12 L177.35,75.74 C176.30,75.47 175.24,76.01 174.82,77.01 C174.39,78.02 174.77,79.14 175.70,79.69 L191.10,88.79 C192.66,89.72 193.60,91.32 193.60,93.15 C193.60,94.94 192.68,96.58 191.14,97.50 L175.79,106.65 C174.84,107.21 174.47,108.35 174.90,109.35 C175.31,110.35 176.38,110.89 177.43,110.61 L194.74,106.16 C196.49,105.71 198.30,106.21 199.57,107.48 C200.86,108.75 201.35,110.54 200.92,112.29 L196.54,129.62 C196.27,130.68 196.81,131.75 197.82,132.16 C198.83,132.58 199.94,132.19 200.51,131.26 L209.60,115.86 C210.50,114.32 212.14,113.39 213.93,113.37 C215.74,113.37 217.38,114.29 218.30,115.83 L227.45,131.19 C228.01,132.13 229.13,132.51 230.15,132.08 C231.15,131.67 231.69,130.61 231.41,129.54 L226.94,112.24 C226.50,110.48 226.99,108.68 228.26,107.40 L228.28,107.40 C229.55,106.13 231.36,105.62 233.09,106.06 L250.44,110.45 C251.49,110.70 252.55,110.18 252.95,109.16 C253.38,108.16 252.99,107.03 252.07,106.48 L236.68,97.39 C235.11,96.47 234.19,94.85 234.19,93.04 C234.17,91.24 235.09,89.61 236.65,88.68" fill="#FFFFFF"/>
<path d="M226.39,171.16 C225.59,171.75 224.48,171.57 223.92,170.78 L215.58,159.45 L215.58,172.97 C215.57,173.96 214.77,174.75 213.81,174.75 C212.82,174.75 212.03,173.96 212.03,172.97 L212.03,159.45 L203.69,170.78 C203.10,171.57 202.00,171.75 201.21,171.16 C200.41,170.57 200.24,169.48 200.83,168.68 L212.03,153.47 L212.03,141.93 L205.26,152.92 C204.73,153.77 203.64,154.04 202.80,153.51 C201.97,153.00 201.72,151.91 202.22,151.07 L212.03,135.16 L212.03,128.99 C212.04,128.87 212.14,128.08 212.84,127.64 C212.95,127.57 213.33,127.37 213.81,127.40 C214.49,127.46 215.09,128.00 215.35,128.78 C215.43,130.88 215.50,132.96 215.57,135.04 L225.40,151.07 C225.89,151.91 225.64,153.00 224.80,153.51 C223.96,154.04 222.88,153.77 222.35,152.92 L215.58,141.85 L215.58,153.47 L226.77,168.68 C227.37,169.46 227.18,170.57 226.39,171.16 M232.92,167.38 C232.14,166.08 231.34,164.79 230.56,163.50 L228.94,160.84 C230.39,158.42 231.06,154.88 231.34,152.97 C232.12,147.73 231.33,146.82 230.99,146.44 C230.87,146.30 230.76,146.13 230.64,145.94 L216.79,124.12 C216.65,123.89 216.46,123.66 216.27,123.47 C215.55,122.76 214.58,122.35 213.54,122.36 C212.22,122.38 211.01,123.08 210.31,124.20 C207.63,128.65 200.99,139.68 197.09,145.81 L197.01,145.94 C196.90,146.16 196.78,146.33 196.66,146.48 C196.33,146.87 195.55,147.75 196.33,152.99 C196.62,154.91 197.30,158.45 198.76,160.87 L194.77,167.43 C194.54,167.81 194.39,168.22 194.31,168.64 C194.03,170.57 194.65,172.48 196.12,174.16 C196.27,174.34 196.44,174.51 196.62,174.70 C199.92,178.01 206.43,180.15 213.58,180.25 L214.14,180.25 C221.67,180.14 228.48,177.75 231.60,174.13 C233.06,172.45 233.66,170.53 233.38,168.59 C233.31,168.18 233.17,167.76 232.92,167.38" fill="#FFFFFF"/>
<path d="M201.35,15.09 C202.13,14.50 203.26,14.69 203.81,15.48 L212.15,26.79 L212.15,13.29 C212.15,12.31 212.95,11.51 213.93,11.51 C214.92,11.51 215.71,12.31 215.70,13.29 L215.71,26.81 L224.05,15.47 C224.64,14.69 225.73,14.50 226.53,15.10 C227.32,15.67 227.50,16.79 226.91,17.58 L215.70,32.78 L215.70,44.32 L222.48,33.32 C223.00,32.48 224.10,32.23 224.94,32.74 C225.77,33.24 226.02,34.35 225.51,35.20 L215.70,51.10 L215.70,57.26 C215.70,57.37 215.60,58.18 214.90,58.61 C214.79,58.68 214.41,58.90 213.93,58.85 C213.25,58.80 212.65,58.25 212.39,57.47 C212.31,55.39 212.23,53.29 212.15,51.21 L202.34,35.18 C201.84,34.34 202.10,33.24 202.94,32.74 C203.77,32.23 204.86,32.50 205.39,33.34 L212.15,44.40 L212.15,32.78 L200.97,17.58 C200.37,16.79 200.56,15.67 201.35,15.09 M194.82,18.88 C195.60,20.17 196.39,21.46 197.17,22.76 L198.79,25.41 C197.35,27.83 196.68,31.38 196.39,33.29 C195.62,38.52 196.39,39.42 196.74,39.82 C196.87,39.96 196.98,40.14 197.09,40.33 L210.95,62.12 C211.09,62.36 211.28,62.58 211.47,62.77 C212.18,63.51 213.15,63.90 214.20,63.89 C215.52,63.87 216.73,63.17 217.43,62.04 C220.11,57.60 226.75,46.59 230.64,40.44 L230.71,40.31 C230.83,40.11 230.95,39.91 231.07,39.77 C231.41,39.39 232.18,38.50 231.41,33.26 C231.12,31.34 230.44,27.79 228.98,25.38 L232.96,18.83 C233.20,18.44 233.34,18.04 233.42,17.61 C233.69,15.67 233.09,13.77 231.61,12.08 C231.45,11.91 231.29,11.73 231.12,11.56 C227.82,8.26 221.30,6.10 214.15,6.00 L213.60,6.00 C206.07,6.11 199.25,8.49 196.14,12.13 C194.68,13.80 194.07,15.72 194.35,17.68 C194.42,18.07 194.57,18.49 194.82,18.88" fill="#FFFFFF"/>
<path d="M293.69,94.96 L280.17,94.97 L291.52,103.31 C292.30,103.89 292.47,105.00 291.88,105.79 C291.29,106.59 290.20,106.75 289.40,106.17 L274.19,94.96 L262.65,94.96 L273.66,101.74 C274.50,102.27 274.76,103.36 274.23,104.19 C273.73,105.01 272.63,105.28 271.79,104.78 L255.89,94.96 L249.71,94.96 C249.61,94.94 248.80,94.86 248.36,94.15 C248.29,94.04 248.09,93.67 248.12,93.20 C248.18,92.51 248.74,91.89 249.50,91.64 C251.60,91.56 253.68,91.50 255.76,91.42 L271.80,81.60 C272.65,81.09 273.73,81.36 274.23,82.20 C274.76,83.03 274.49,84.12 273.65,84.63 L262.57,91.40 L274.19,91.40 L289.40,80.22 C290.18,79.63 291.29,79.80 291.90,80.60 C292.47,81.39 292.30,82.50 291.50,83.08 L280.19,91.40 L293.69,91.40 C294.68,91.42 295.47,92.21 295.47,93.18 C295.47,94.18 294.68,94.97 293.69,94.96 M294.85,75.40 C293.17,73.94 291.25,73.32 289.31,73.61 C288.91,73.67 288.48,73.81 288.10,74.07 C286.82,74.85 285.51,75.64 284.23,76.44 L281.56,78.06 C279.16,76.61 275.60,75.93 273.69,75.64 C268.45,74.88 267.56,75.66 267.16,76.01 C267.02,76.12 266.85,76.25 266.66,76.34 L244.85,90.19 C244.62,90.35 244.38,90.53 244.19,90.73 C243.48,91.45 243.08,92.42 243.08,93.45 C243.10,94.78 243.80,95.99 244.94,96.67 C249.37,99.37 260.40,106.00 266.53,109.91 L266.67,109.97 C266.88,110.10 267.05,110.21 267.20,110.32 C267.59,110.65 268.48,111.45 273.71,110.65 C275.63,110.37 279.17,109.68 281.59,108.22 L288.15,112.23 C288.53,112.46 288.94,112.61 289.37,112.67 C291.29,112.96 293.20,112.34 294.88,110.88 C295.06,110.72 295.25,110.56 295.43,110.37 C298.73,107.06 300.89,100.57 300.99,93.40 L300.99,92.85 C300.86,85.33 298.48,78.52 294.85,75.40" fill="#FFFFFF"/>
<path d="M138.30,106.03 C137.52,106.62 136.41,106.44 135.81,105.65 C135.24,104.85 135.41,103.74 136.20,103.17 L147.51,94.85 L134.01,94.85 C133.03,94.83 132.23,94.04 132.23,93.07 C132.23,92.07 133.03,91.27 134.01,91.29 L147.53,91.27 L136.19,82.93 C135.41,82.36 135.24,81.25 135.82,80.45 C136.41,79.66 137.51,79.50 138.30,80.07 L153.52,91.29 L165.04,91.29 L154.04,84.51 C153.20,84.00 152.95,82.89 153.47,82.06 C153.98,81.23 155.08,80.96 155.92,81.47 L171.82,91.29 L178.00,91.29 C178.09,91.30 178.90,91.38 179.33,92.10 C179.41,92.21 179.62,92.58 179.57,93.05 C179.52,93.74 178.97,94.35 178.19,94.61 C176.11,94.69 174.03,94.75 171.93,94.83 L155.90,104.65 C155.06,105.16 153.98,104.89 153.47,104.04 C152.95,103.22 153.22,102.12 154.06,101.61 L165.13,94.85 L153.52,94.85 L138.30,106.03 M154.01,110.61 C159.25,111.37 160.14,110.59 160.54,110.24 C160.68,110.13 160.86,110.00 161.05,109.91 L182.84,96.05 C183.08,95.90 183.31,95.72 183.50,95.51 C184.23,94.82 184.62,93.83 184.61,92.80 C184.61,91.46 183.91,90.26 182.76,89.57 C178.32,86.89 167.31,80.25 161.16,76.34 L161.03,76.28 C160.83,76.17 160.65,76.04 160.51,75.93 C160.11,75.59 159.22,74.80 153.98,75.59 C152.07,75.88 148.53,76.56 146.10,78.02 L139.56,74.02 C139.16,73.78 138.76,73.64 138.33,73.58 C136.41,73.29 134.49,73.91 132.82,75.37 C132.63,75.53 132.46,75.69 132.28,75.88 C128.98,79.18 126.82,85.68 126.72,92.85 L126.72,93.40 C126.85,100.92 129.23,107.73 132.85,110.84 C134.54,112.31 136.46,112.92 138.40,112.64 C138.79,112.58 139.21,112.43 139.60,112.18 C140.89,111.40 142.19,110.61 143.48,109.83 L146.15,108.19 C148.55,109.64 152.11,110.32 154.01,110.61" fill="#FFFFFF"/>
<path d="M276.63,141.68 L262.75,139.56 L272.30,149.11 C272.98,149.81 272.98,150.94 272.30,151.62 C271.60,152.34 270.47,152.34 269.79,151.62 L260.21,142.07 L262.34,155.99 C262.48,156.96 261.83,157.86 260.84,158.01 C259.87,158.15 258.97,157.48 258.82,156.51 L256.00,137.83 L247.85,129.68 L250.82,142.25 C251.06,143.22 250.45,144.17 249.50,144.39 C248.55,144.62 247.59,144.03 247.36,143.08 L243.05,124.89 L238.68,120.53 C238.62,120.44 238.11,119.80 238.30,119.01 C238.33,118.88 238.44,118.47 238.81,118.15 C239.33,117.71 240.16,117.67 240.89,118.04 C242.41,119.45 243.94,120.88 245.47,122.30 L263.75,126.70 C264.70,126.94 265.29,127.89 265.05,128.84 C264.83,129.80 263.86,130.38 262.91,130.16 L250.29,127.11 L258.51,135.32 L277.17,138.17 C278.14,138.31 278.81,139.22 278.67,140.20 C278.51,141.17 277.60,141.84 276.63,141.68 M281.78,133.43 C281.45,133.19 281.05,133.00 280.60,132.91 C279.13,132.54 277.67,132.19 276.19,131.83 L273.15,131.10 C272.49,128.37 270.44,125.38 269.29,123.82 C266.13,119.58 264.94,119.50 264.43,119.47 C264.24,119.44 264.04,119.41 263.83,119.34 L238.62,113.72 C238.33,113.67 238.06,113.62 237.78,113.64 C236.76,113.62 235.79,114.04 235.06,114.78 C234.14,115.72 233.77,117.07 234.09,118.36 C235.33,123.41 238.43,135.90 240.02,143.00 L240.06,143.12 C240.13,143.36 240.16,143.57 240.18,143.76 C240.22,144.27 240.30,145.46 244.56,148.60 C246.12,149.76 249.10,151.78 251.85,152.45 L253.66,159.91 C253.76,160.36 253.95,160.74 254.20,161.09 C255.36,162.66 257.14,163.57 259.38,163.73 C259.62,163.74 259.86,163.74 260.11,163.74 C264.78,163.74 270.90,160.68 276.03,155.69 L276.43,155.29 C281.67,149.89 284.80,143.38 284.43,138.61 C284.27,136.39 283.35,134.61 281.78,133.43" fill="#FFFFFF"/>
<path d="M152.58,46.09 L166.48,48.21 L156.93,38.66 C156.24,37.95 156.24,36.83 156.93,36.13 C157.63,35.44 158.76,35.44 159.44,36.13 L169.01,45.70 L166.89,31.78 C166.75,30.81 167.40,29.91 168.39,29.76 C169.36,29.62 170.25,30.27 170.41,31.24 L173.23,49.94 L181.38,58.09 L178.40,45.52 C178.17,44.55 178.78,43.58 179.73,43.38 C180.67,43.14 181.64,43.74 181.87,44.70 L186.18,62.87 L190.55,67.24 C190.61,67.32 191.12,67.95 190.93,68.76 C190.90,68.89 190.79,69.30 190.42,69.62 C189.90,70.05 189.07,70.10 188.34,69.73 C186.81,68.30 185.29,66.89 183.75,65.46 L165.48,61.07 C164.53,60.84 163.94,59.88 164.18,58.93 C164.40,57.96 165.35,57.39 166.32,57.61 L178.94,60.66 L170.72,52.45 L152.06,49.61 C151.09,49.46 150.42,48.56 150.56,47.57 C150.71,46.60 151.63,45.94 152.58,46.09 M147.45,54.34 C147.78,54.58 148.18,54.77 148.63,54.86 C150.09,55.23 151.56,55.58 153.03,55.94 L156.06,56.67 C156.74,59.41 158.78,62.39 159.92,63.93 C163.08,68.19 164.27,68.27 164.80,68.30 C164.97,68.32 165.19,68.37 165.40,68.43 L190.61,74.04 C190.88,74.10 191.17,74.13 191.45,74.13 C192.46,74.13 193.44,73.74 194.15,72.99 C195.09,72.04 195.46,70.70 195.14,69.40 C193.90,64.36 190.79,51.88 189.21,44.78 L189.17,44.63 C189.10,44.41 189.05,44.19 189.04,44.01 C189.01,43.51 188.93,42.31 184.67,39.17 C183.11,38.01 180.13,35.99 177.38,35.31 L175.57,27.86 C175.46,27.41 175.28,27.03 175.03,26.68 C173.87,25.11 172.07,24.19 169.85,24.05 C169.61,24.03 169.37,24.01 169.12,24.01 C164.45,24.01 158.32,27.10 153.19,32.08 L152.80,32.48 C147.56,37.88 144.43,44.38 144.78,49.16 C144.94,51.37 145.86,53.16 147.45,54.34" fill="#FFFFFF"/>
<path d="M238.09,66.78 C239.51,65.25 240.94,63.73 242.35,62.20 L246.75,43.92 C246.99,42.97 247.94,42.39 248.90,42.62 C249.85,42.84 250.44,43.81 250.20,44.76 L247.17,57.37 L255.38,49.16 L258.22,30.49 C258.36,29.53 259.27,28.86 260.25,29.00 C261.22,29.16 261.89,30.07 261.73,31.04 L259.62,44.92 L269.17,35.37 C269.87,34.69 270.99,34.69 271.68,35.37 C272.38,36.07 272.38,37.20 271.68,37.88 L262.13,47.46 L276.04,45.33 C277.01,45.19 277.90,45.84 278.05,46.83 C278.21,47.79 277.54,48.70 276.57,48.84 L257.89,51.67 L249.74,59.84 L262.30,56.85 C263.27,56.63 264.23,57.21 264.45,58.17 C264.67,59.12 264.08,60.07 263.13,60.31 L244.94,64.62 L240.57,68.99 C240.49,69.05 239.86,69.56 239.05,69.37 C238.92,69.34 238.51,69.22 238.21,68.86 C237.76,68.33 237.71,67.51 238.09,66.78 M238.41,73.58 C243.46,72.34 255.95,69.24 263.03,67.65 L263.18,67.62 C263.42,67.54 263.62,67.51 263.81,67.49 C264.32,67.44 265.50,67.37 268.66,63.11 C269.80,61.55 271.84,58.56 272.50,55.82 L279.97,54.02 C280.41,53.91 280.79,53.72 281.14,53.47 C282.72,52.31 283.62,50.53 283.78,48.29 C283.80,48.06 283.80,47.81 283.80,47.56 C283.80,42.89 280.73,36.77 275.73,31.64 L275.35,31.24 C269.93,26.00 263.43,22.87 258.67,23.24 C256.44,23.39 254.65,24.32 253.49,25.89 C253.25,26.22 253.06,26.62 252.95,27.06 C252.60,28.54 252.23,30.02 251.88,31.48 L251.14,34.51 C248.42,35.18 245.43,37.23 243.88,38.37 C239.63,41.54 239.54,42.73 239.51,43.24 C239.49,43.43 239.46,43.63 239.40,43.84 L233.77,69.05 C233.71,69.34 233.68,69.62 233.69,69.89 C233.68,70.91 234.09,71.88 234.84,72.61 C235.78,73.53 237.13,73.89 238.41,73.58" fill="#FFFFFF"/>
<path d="M189.79,119.33 C188.36,120.85 186.94,122.39 185.51,123.92 L181.13,142.20 C180.89,143.14 179.92,143.73 178.97,143.49 C178.02,143.28 177.44,142.31 177.67,141.34 L180.72,128.73 L172.50,136.94 L169.64,155.61 C169.52,156.59 168.60,157.25 167.63,157.10 C166.66,156.96 165.99,156.04 166.15,155.08 L168.26,141.19 L158.71,150.73 C158.00,151.43 156.89,151.43 156.19,150.73 C155.49,150.03 155.49,148.91 156.19,148.22 L165.75,138.66 L151.84,140.77 C150.87,140.92 149.96,140.26 149.82,139.28 C149.66,138.31 150.33,137.42 151.30,137.26 L169.98,134.43 L178.14,126.28 L165.56,129.27 C164.61,129.49 163.64,128.91 163.42,127.94 C163.19,127.00 163.80,126.03 164.75,125.79 L182.92,121.49 L187.29,117.13 C187.37,117.05 188.01,116.55 188.82,116.74 C188.94,116.77 189.36,116.90 189.66,117.26 C190.10,117.79 190.15,118.60 189.79,119.33 M189.45,112.53 C184.42,113.78 171.93,116.88 164.83,118.45 L164.69,118.50 C164.45,118.56 164.24,118.61 164.07,118.63 C163.54,118.68 162.37,118.74 159.22,123.00 C158.06,124.55 156.05,127.56 155.36,130.29 L147.91,132.10 C147.47,132.21 147.09,132.38 146.72,132.64 C145.16,133.81 144.24,135.59 144.10,137.82 C144.08,138.06 144.07,138.29 144.07,138.55 C144.07,143.22 147.15,149.35 152.14,154.48 L152.53,154.86 C157.94,160.10 164.43,163.23 169.20,162.88 C171.42,162.73 173.22,161.80 174.39,160.22 C174.63,159.88 174.82,159.50 174.92,159.04 C175.28,157.58 175.63,156.10 176.00,154.64 L176.73,151.61 C179.45,150.92 182.45,148.89 183.99,147.75 C188.25,144.58 188.32,143.39 188.36,142.87 C188.37,142.69 188.42,142.47 188.47,142.27 L194.09,117.05 C194.16,116.78 194.19,116.50 194.19,116.23 C194.19,115.21 193.79,114.24 193.04,113.51 C192.09,112.58 190.74,112.21 189.45,112.53" fill="#FFFFFF"/>
<path d="M50.88,304.86 C49.05,303.27 46.97,302.01 44.64,301.09 C42.30,300.16 39.95,299.69 37.56,299.69 C36.24,299.69 34.88,299.87 33.51,300.21 C32.13,300.56 30.71,301.14 29.25,301.96 C27.79,302.78 26.26,303.87 24.64,305.22 C23.63,306.06 22.57,307.04 21.44,308.14 C20.30,309.26 20.36,311.14 21.57,312.19 C22.66,313.14 24.30,313.09 25.32,312.06 C27.46,309.90 29.48,308.29 31.36,307.25 C33.74,305.92 36.05,305.26 38.28,305.26 C39.76,305.26 41.27,305.62 42.81,306.33 C44.34,307.05 45.75,307.99 47.02,309.16 C48.29,310.32 49.33,311.65 50.12,313.13 C50.92,314.61 51.31,316.15 51.31,317.74 C51.31,319.65 50.90,321.43 50.08,323.07 C49.26,324.71 48.13,326.13 46.70,327.32 C45.27,328.51 43.57,329.44 41.62,330.10 C39.65,330.77 37.51,331.07 35.18,331.02 C31.62,330.97 28.39,330.45 25.48,329.47 C22.56,328.49 20.07,327.11 18.00,325.33 C15.94,323.56 14.35,321.43 13.23,318.93 C12.12,316.44 11.56,313.69 11.56,310.67 C11.56,307.17 12.15,303.86 13.31,300.73 C14.48,297.60 16.03,294.85 17.96,292.46 C19.90,290.08 22.15,288.19 24.72,286.82 C27.29,285.44 29.98,284.75 32.79,284.75 C35.86,284.75 38.87,285.46 41.81,286.90 C44.24,288.07 46.81,289.93 49.54,292.48 C50.57,293.44 52.17,293.45 53.23,292.51 L53.30,292.45 C54.51,291.37 54.53,289.47 53.34,288.36 C51.99,287.10 50.70,286.01 49.49,285.07 C47.63,283.64 45.83,282.48 44.08,281.61 C42.33,280.73 40.61,280.11 38.91,279.74 C37.22,279.37 35.44,279.18 33.59,279.18 C29.77,279.18 26.19,279.98 22.85,281.57 C19.51,283.16 16.59,285.35 14.07,288.13 C11.55,290.91 9.58,294.14 8.15,297.83 C6.71,301.51 6.00,305.47 6.00,309.71 C6.00,313.48 6.70,316.93 8.11,320.09 C9.51,323.24 11.46,325.97 13.95,328.27 C16.44,330.58 19.43,332.37 22.93,333.64 C26.43,334.91 30.25,335.55 34.38,335.55 C37.56,335.55 40.53,335.08 43.28,334.16 C46.04,333.23 48.41,331.95 50.40,330.30 C52.39,328.66 53.96,326.72 55.13,324.50 C56.29,322.27 56.88,319.86 56.88,317.26 C56.88,314.83 56.34,312.55 55.25,310.43 C54.16,308.31 52.71,306.45 50.88,304.86" fill="#FFFFFF"/>
<path d="M93.40,295.08 L90.15,295.08 C89.51,295.08 89.00,295.60 89.00,296.24 L89.00,313.13 C89.00,315.25 88.62,317.37 87.88,319.49 C87.14,321.61 86.16,323.51 84.94,325.18 C83.72,326.84 82.30,328.21 80.69,329.27 C79.07,330.33 77.41,330.86 75.72,330.86 C73.39,330.86 71.66,329.77 70.55,327.60 C69.44,325.43 68.88,322.01 68.88,317.34 L68.88,296.24 C68.88,295.60 68.36,295.08 67.73,295.08 L64.47,295.08 C63.84,295.08 63.32,295.60 63.32,296.24 L63.32,319.41 C63.32,324.66 64.36,328.81 66.46,331.85 C68.55,334.90 71.37,336.42 74.92,336.42 C76.57,336.42 78.12,336.08 79.58,335.39 C81.03,334.70 82.37,333.75 83.59,332.53 C84.81,331.31 85.88,329.84 86.81,328.12 C87.38,327.05 89.00,327.46 89.00,328.67 L89.00,333.68 C89.00,334.32 89.51,334.83 90.15,334.83 L93.40,334.83 C94.04,334.83 94.56,334.32 94.56,333.68 L94.56,296.24 C94.56,295.60 94.04,295.08 93.40,295.08" fill="#FFFFFF"/>
<path d="M139.20,332.69 C138.91,331.73 138.65,330.66 138.44,329.47 C138.23,328.28 138.06,327.00 137.93,325.65 C137.79,324.30 137.73,323.02 137.73,321.80 L137.73,310.11 C137.73,304.12 136.10,299.84 132.84,297.27 C129.58,294.70 124.32,293.71 117.06,294.29 L104.00,295.25 C103.48,295.29 103.08,295.74 103.09,296.26 L103.20,299.87 C103.21,300.42 103.69,300.86 104.24,300.82 L117.93,299.85 C120.69,299.64 122.98,299.65 124.81,299.89 C126.64,300.13 128.09,300.65 129.18,301.44 C130.27,302.24 131.04,303.34 131.49,304.74 C131.94,306.15 132.16,307.94 132.16,310.11 L132.16,310.18 C132.16,311.12 130.99,311.50 130.40,310.76 C128.22,308.05 124.81,306.69 120.16,306.69 C117.35,306.69 114.73,307.14 112.29,308.04 C109.85,308.95 107.73,310.18 105.93,311.74 C104.13,313.30 102.71,315.12 101.67,317.18 C100.64,319.25 100.12,321.48 100.12,323.86 C100.12,325.77 100.48,327.51 101.20,329.07 C101.91,330.63 102.91,331.96 104.18,333.05 C105.45,334.13 106.99,334.97 108.79,335.55 C110.59,336.13 112.58,336.42 114.75,336.42 C116.50,336.42 118.16,336.25 119.72,335.91 C121.28,335.56 122.77,335.11 124.17,334.56 C125.58,334.00 126.86,333.36 128.03,332.65 C128.86,332.14 129.62,331.63 130.29,331.13 C130.72,330.81 130.82,330.21 130.51,329.78 L128.44,326.82 C128.13,326.38 127.52,326.29 127.08,326.61 C125.71,327.60 124.13,328.51 122.34,329.35 C120.20,330.36 117.67,330.86 114.75,330.86 C111.89,330.86 109.66,330.28 108.07,329.11 C106.48,327.95 105.69,326.20 105.69,323.86 C105.69,322.27 106.07,320.78 106.84,319.37 C107.61,317.97 108.66,316.74 109.98,315.68 C111.31,314.62 112.88,313.78 114.71,313.17 C116.54,312.56 118.52,312.26 120.64,312.26 C124.13,312.26 126.93,313.09 129.02,314.76 C131.12,316.43 132.16,318.78 132.16,321.80 C132.16,323.02 132.23,324.30 132.36,325.65 C132.49,327.00 132.67,328.28 132.88,329.47 C133.09,330.66 133.34,331.73 133.63,332.69 C133.83,333.33 134.03,333.87 134.24,334.30 C134.41,334.63 134.75,334.83 135.12,334.83 L138.56,334.83 C139.24,334.83 139.72,334.16 139.48,333.52 C139.38,333.27 139.29,332.99 139.20,332.69" fill="#FFFFFF"/>
<path d="M168.41,295.08 L166.59,295.08 C162.50,295.08 159.35,296.15 157.13,298.26 C156.91,298.47 156.70,298.69 156.50,298.91 C155.06,300.50 152.44,299.54 152.44,297.40 C152.44,296.12 151.40,295.08 150.12,295.08 L149.18,295.08 C147.91,295.08 146.87,296.12 146.87,297.40 L146.87,332.52 C146.87,333.80 147.91,334.83 149.18,334.83 L150.12,334.83 C151.40,334.83 152.44,333.80 152.44,332.52 L152.44,321.80 C152.44,318.56 152.69,315.64 153.19,313.01 C153.69,310.39 154.51,308.16 155.65,306.33 C156.79,304.51 158.26,303.10 160.07,302.12 C161.87,301.14 164.04,300.65 166.59,300.65 L168.41,300.65 C169.68,300.65 170.72,299.61 170.72,298.34 L170.72,297.40 C170.72,296.12 169.68,295.08 168.41,295.08" fill="#FFFFFF"/>
<path d="M211.38,332.69 C211.09,331.73 210.84,330.66 210.63,329.47 C210.42,328.28 210.24,327.00 210.11,325.65 C209.98,324.30 209.91,323.02 209.91,321.80 L209.91,310.11 C209.91,304.12 208.28,299.84 205.02,297.27 C201.76,294.70 196.50,293.71 189.24,294.29 L176.19,295.25 C175.66,295.29 175.26,295.74 175.28,296.26 L175.38,299.87 C175.40,300.42 175.87,300.86 176.43,300.82 L190.12,299.85 C192.87,299.64 195.17,299.65 196.99,299.89 C198.82,300.13 200.28,300.65 201.37,301.44 C202.45,302.24 203.22,303.34 203.67,304.74 C204.12,306.15 204.35,307.94 204.35,310.11 L204.35,310.18 C204.35,311.12 203.17,311.50 202.58,310.76 C200.41,308.05 196.99,306.69 192.34,306.69 C189.53,306.69 186.91,307.14 184.47,308.04 C182.03,308.95 179.91,310.18 178.11,311.74 C176.31,313.30 174.89,315.12 173.86,317.18 C172.83,319.25 172.31,321.48 172.31,323.86 C172.31,325.77 172.67,327.51 173.38,329.07 C174.10,330.63 175.09,331.96 176.36,333.05 C177.64,334.13 179.17,334.97 180.98,335.55 C182.78,336.13 184.76,336.42 186.94,336.42 C188.69,336.42 190.34,336.25 191.91,335.91 C193.47,335.56 194.95,335.11 196.36,334.56 C197.76,334.00 199.05,333.36 200.21,332.65 C201.05,332.14 201.80,331.63 202.47,331.13 C202.90,330.81 203.01,330.21 202.70,329.78 L200.63,326.83 C200.31,326.38 199.70,326.29 199.26,326.61 C197.90,327.60 196.32,328.51 194.53,329.35 C192.38,330.36 189.85,330.86 186.94,330.86 C184.08,330.86 181.85,330.28 180.26,329.11 C178.67,327.95 177.87,326.20 177.87,323.86 C177.87,322.27 178.26,320.78 179.03,319.37 C179.80,317.97 180.84,316.74 182.17,315.68 C183.49,314.62 185.07,313.78 186.90,313.17 C188.73,312.56 190.70,312.26 192.82,312.26 C196.32,312.26 199.11,313.09 201.21,314.76 C203.30,316.43 204.35,318.78 204.35,321.80 C204.35,323.02 204.41,324.30 204.55,325.65 C204.68,327.00 204.85,328.28 205.06,329.47 C205.27,330.66 205.53,331.73 205.82,332.69 C206.02,333.33 206.22,333.87 206.43,334.30 C206.59,334.63 206.94,334.83 207.31,334.83 L210.75,334.83 C211.43,334.83 211.90,334.16 211.66,333.52 C211.57,333.27 211.48,332.99 211.38,332.69" fill="#FFFFFF"/>
<path d="M249.74,300.17 C247.99,298.00 245.98,296.32 243.70,295.12 C241.42,293.93 239.04,293.34 236.54,293.34 C233.26,293.34 230.66,294.42 228.75,296.59 C228.43,296.96 228.13,297.35 227.84,297.78 C226.85,299.22 224.62,298.58 224.62,296.83 C224.62,295.87 223.84,295.08 222.87,295.08 L220.80,295.08 C219.84,295.08 219.05,295.87 219.05,296.83 L219.05,347.63 C219.05,348.60 219.84,349.38 220.80,349.38 L222.87,349.38 C223.84,349.38 224.62,348.60 224.62,347.63 L224.62,321.80 C224.62,318.30 224.86,315.13 225.34,312.30 C225.81,309.46 226.54,307.05 227.52,305.06 C228.50,303.07 229.71,301.55 231.14,300.49 C232.57,299.43 234.24,298.90 236.15,298.90 C237.90,298.90 239.61,299.37 241.27,300.29 C242.94,301.22 244.43,302.54 245.73,304.27 C247.03,305.99 248.06,308.07 248.83,310.51 C249.60,312.95 249.98,315.65 249.98,318.62 C249.98,322.80 249.16,325.89 247.52,327.88 C245.87,329.87 243.38,330.86 240.04,330.86 C238.82,330.86 237.56,330.66 236.27,330.26 C235.39,329.99 234.48,329.51 233.54,328.82 C232.76,328.24 231.64,328.43 231.09,329.23 L229.92,330.88 C229.39,331.65 229.54,332.72 230.29,333.28 C231.61,334.26 233.01,334.99 234.48,335.47 C236.44,336.11 238.43,336.42 240.44,336.42 C245.21,336.42 248.92,334.79 251.57,331.53 C254.22,328.28 255.55,323.76 255.55,317.98 C255.55,314.32 255.02,310.98 253.95,307.96 C252.89,304.94 251.49,302.35 249.74,300.17" fill="#FFFFFF"/>
<path d="M292.00,295.08 L288.72,295.08 C288.09,295.08 287.58,295.60 287.58,296.23 L287.58,313.13 C287.58,315.25 287.21,317.37 286.47,319.49 C285.73,321.61 284.75,323.51 283.53,325.18 C282.31,326.84 280.89,328.21 279.27,329.27 C277.66,330.33 276.00,330.86 274.31,330.86 C271.97,330.86 270.25,329.77 269.14,327.60 C268.02,325.43 267.47,322.01 267.47,317.34 L267.47,296.23 C267.47,295.60 266.96,295.08 266.33,295.08 L263.04,295.08 C262.41,295.08 261.90,295.60 261.90,296.23 L261.90,319.41 C261.90,324.66 262.95,328.81 265.04,331.85 C267.14,334.90 269.96,336.42 273.51,336.42 C275.15,336.42 276.70,336.08 278.16,335.39 C279.62,334.70 280.96,333.75 282.18,332.53 C283.39,331.31 284.47,329.84 285.40,328.12 C285.40,328.10 285.41,328.08 285.42,328.06 C285.99,327.01 287.58,327.38 287.58,328.58 L287.58,333.69 C287.58,334.32 288.09,334.83 288.72,334.83 L292.00,334.83 C292.64,334.83 293.15,334.32 293.15,333.69 L293.15,296.23 C293.15,295.60 292.64,295.08 292.00,295.08" fill="#FFFFFF"/>
<path d="M337.78,332.69 C337.49,331.73 337.24,330.66 337.03,329.47 C336.82,328.28 336.64,327.00 336.51,325.65 C336.38,324.30 336.31,323.02 336.31,321.80 L336.31,310.11 C336.31,304.12 334.68,299.84 331.43,297.27 C328.17,294.70 322.90,293.71 315.64,294.29 L302.59,295.25 C302.06,295.29 301.66,295.74 301.68,296.26 L301.78,299.87 C301.80,300.42 302.27,300.86 302.83,300.82 L316.52,299.85 C319.27,299.64 321.57,299.65 323.40,299.89 C325.22,300.13 326.68,300.65 327.77,301.44 C328.85,302.24 329.62,303.34 330.07,304.74 C330.52,306.15 330.75,307.94 330.75,310.11 L330.75,310.18 C330.75,311.12 329.57,311.50 328.98,310.76 C326.81,308.05 323.40,306.69 318.74,306.69 C315.93,306.69 313.31,307.14 310.87,308.04 C308.44,308.95 306.32,310.18 304.51,311.74 C302.71,313.30 301.29,315.12 300.26,317.18 C299.23,319.25 298.71,321.48 298.71,323.86 C298.71,325.77 299.07,327.51 299.78,329.07 C300.50,330.63 301.49,331.96 302.77,333.05 C304.04,334.13 305.57,334.97 307.38,335.55 C309.18,336.13 311.17,336.42 313.34,336.42 C315.09,336.42 316.74,336.25 318.31,335.91 C319.87,335.56 321.35,335.11 322.76,334.56 C324.16,334.00 325.45,333.36 326.62,332.65 C327.45,332.14 328.20,331.63 328.87,331.13 C329.30,330.81 329.41,330.21 329.10,329.78 L327.03,326.83 C326.72,326.38 326.10,326.29 325.66,326.61 C324.30,327.60 322.72,328.51 320.93,329.35 C318.78,330.36 316.25,330.86 313.34,330.86 C310.48,330.86 308.25,330.28 306.66,329.11 C305.07,327.95 304.28,326.20 304.28,323.86 C304.28,322.27 304.66,320.78 305.43,319.37 C306.20,317.97 307.24,316.74 308.57,315.68 C309.89,314.62 311.47,313.78 313.30,313.17 C315.13,312.56 317.10,312.26 319.22,312.26 C322.72,312.26 325.51,313.09 327.61,314.76 C329.70,316.43 330.75,318.78 330.75,321.80 C330.75,323.02 330.81,324.30 330.95,325.65 C331.08,327.00 331.25,328.28 331.46,329.47 C331.68,330.66 331.93,331.73 332.22,332.69 C332.42,333.33 332.62,333.87 332.83,334.30 C332.99,334.63 333.34,334.83 333.71,334.83 L337.15,334.83 C337.83,334.83 338.30,334.16 338.07,333.52 C337.97,333.27 337.88,332.99 337.78,332.69" fill="#FFFFFF"/>
<path d="M375.40,295.08 L375.40,295.08 C373.93,295.08 372.72,296.24 372.66,297.71 C372.62,298.62 372.56,299.62 372.49,300.73 C372.33,303.06 372.04,305.55 371.61,308.20 C371.19,310.85 370.60,313.53 369.86,316.23 C369.12,318.93 368.21,321.36 367.12,323.51 C366.03,325.65 364.74,327.41 363.22,328.79 C361.71,330.17 359.95,330.86 357.94,330.86 C355.55,330.86 353.80,329.77 352.69,327.60 C351.58,325.43 351.02,322.01 351.02,317.34 L351.02,297.83 C351.02,296.32 349.79,295.08 348.27,295.08 L348.21,295.08 C346.69,295.08 345.46,296.32 345.46,297.83 L345.46,319.41 C345.46,324.66 346.50,328.81 348.60,331.85 C350.69,334.90 353.51,336.42 357.06,336.42 C360.24,336.42 362.97,335.63 365.25,334.04 C367.53,332.45 369.45,330.41 371.02,327.92 C372.58,325.43 373.84,322.62 374.79,319.49 C375.75,316.36 376.47,313.28 376.98,310.23 C377.48,307.18 377.81,304.31 377.97,301.60 C378.05,300.24 378.11,299.02 378.15,297.92 C378.21,296.37 376.96,295.08 375.40,295.08" fill="#FFFFFF"/>
<path d="M421.54,333.52 C421.44,333.27 421.35,332.99 421.26,332.69 C420.97,331.73 420.71,330.66 420.50,329.47 C420.29,328.27 420.12,327.00 419.99,325.65 C419.85,324.30 419.79,323.02 419.79,321.80 L419.79,310.11 C419.79,304.12 418.16,299.84 414.90,297.27 C411.64,294.70 406.38,293.71 399.12,294.29 L386.06,295.25 C385.54,295.29 385.14,295.73 385.15,296.26 L385.26,299.87 C385.27,300.42 385.75,300.85 386.30,300.82 L399.99,299.85 C402.75,299.64 405.04,299.65 406.87,299.89 C408.70,300.13 410.15,300.65 411.24,301.44 C412.33,302.24 413.10,303.34 413.55,304.74 C414.00,306.15 414.22,307.94 414.22,310.11 L414.22,310.17 C414.22,311.12 413.05,311.50 412.46,310.76 C410.28,308.05 406.87,306.69 402.22,306.69 C399.41,306.69 396.78,307.14 394.35,308.04 C391.91,308.94 389.79,310.18 387.99,311.74 C386.19,313.30 384.77,315.12 383.73,317.18 C382.70,319.25 382.18,321.48 382.18,323.86 C382.18,325.77 382.54,327.51 383.26,329.07 C383.97,330.63 384.97,331.96 386.24,333.04 C387.51,334.13 389.05,334.96 390.85,335.55 C392.65,336.13 394.64,336.42 396.81,336.42 C398.56,336.42 400.22,336.25 401.78,335.91 C403.34,335.56 404.83,335.11 406.23,334.55 C407.64,334.00 408.92,333.36 410.09,332.65 C410.92,332.13 411.68,331.63 412.35,331.13 C412.78,330.81 412.88,330.21 412.57,329.77 L410.50,326.82 C410.19,326.38 409.58,326.29 409.14,326.61 C407.77,327.60 406.19,328.51 404.40,329.35 C402.26,330.36 399.73,330.86 396.81,330.86 C393.95,330.86 391.72,330.28 390.13,329.11 C388.54,327.94 387.75,326.20 387.75,323.86 C387.75,322.27 388.13,320.78 388.90,319.37 C389.67,317.97 390.72,316.74 392.04,315.67 C393.37,314.61 394.94,313.78 396.77,313.17 C398.60,312.56 400.57,312.26 402.70,312.26 C406.19,312.26 408.99,313.09 411.08,314.76 C413.17,316.43 414.22,318.77 414.22,321.80 C414.22,323.02 414.29,324.30 414.42,325.65 C414.55,327.00 414.73,328.27 414.94,329.47 C415.15,330.66 415.40,331.73 415.69,332.69 C415.89,333.33 416.09,333.87 416.30,334.30 C416.47,334.63 416.81,334.83 417.18,334.83 L420.62,334.83 C421.30,334.83 421.78,334.16 421.54,333.52" fill="#FFFFFF"/>
<path d="M74.43,216.61 C72.71,216.61 71.30,218.01 71.30,219.73 L71.30,274.27 C71.30,276.00 72.71,277.40 74.43,277.40 C76.16,277.40 77.56,276.00 77.56,274.27 L77.56,219.73 C77.56,218.01 76.16,216.61 74.43,216.61" fill="#FFFFFF"/>
<path d="M109.48,230.91 C107.63,230.91 105.88,231.30 104.25,232.07 C102.61,232.85 101.10,233.92 99.73,235.29 C98.36,236.66 97.17,238.31 96.16,240.25 C96.15,240.27 96.14,240.29 96.13,240.31 C95.49,241.53 93.65,241.12 93.65,239.74 L93.65,234.00 C93.65,233.28 93.07,232.70 92.35,232.70 L88.70,232.70 C87.98,232.70 87.40,233.28 87.40,234.00 L87.40,276.09 C87.40,276.81 87.98,277.40 88.70,277.40 L92.35,277.40 C93.07,277.40 93.65,276.81 93.65,276.09 L93.65,257.10 C93.65,254.72 94.07,252.34 94.90,249.95 C95.74,247.57 96.86,245.44 98.26,243.56 C99.66,241.68 101.25,240.15 103.04,238.96 C104.83,237.76 106.67,237.17 108.58,237.17 C111.20,237.17 113.14,238.39 114.39,240.83 C115.65,243.28 116.27,247.12 116.27,252.36 L116.27,276.09 C116.27,276.81 116.85,277.40 117.57,277.40 L121.22,277.40 C121.94,277.40 122.53,276.81 122.53,276.09 L122.53,250.04 C122.53,244.14 121.35,239.48 119.00,236.05 C116.64,232.62 113.47,230.91 109.48,230.91" fill="#FFFFFF"/>
<path d="M165.14,232.70 C163.49,232.70 162.13,233.99 162.06,235.64 C162.01,236.66 161.95,237.79 161.86,239.04 C161.68,241.67 161.36,244.47 160.88,247.45 C160.40,250.43 159.75,253.44 158.91,256.48 C158.08,259.52 157.05,262.24 155.83,264.66 C154.61,267.07 153.15,269.05 151.45,270.60 C149.75,272.15 147.77,272.93 145.50,272.93 C142.82,272.93 140.85,271.71 139.60,269.26 C138.35,266.82 137.73,262.97 137.73,257.73 L137.73,235.79 C137.73,234.08 136.34,232.70 134.63,232.70 L134.56,232.70 C132.85,232.70 131.47,234.08 131.47,235.79 L131.47,260.05 C131.47,265.95 132.64,270.62 135.00,274.04 C137.35,277.47 140.53,279.18 144.52,279.18 C148.09,279.18 151.16,278.29 153.73,276.50 C156.29,274.71 158.45,272.42 160.21,269.62 C161.97,266.82 163.38,263.66 164.45,260.14 C165.53,256.63 166.35,253.16 166.91,249.73 C167.48,246.30 167.85,243.07 168.03,240.03 C168.12,238.50 168.19,237.11 168.23,235.89 C168.30,234.14 166.89,232.70 165.14,232.70" fill="#FFFFFF"/>
<path d="M215.36,235.78 C213.37,234.26 211.01,233.07 208.30,232.21 C205.59,231.34 202.71,230.91 199.68,230.91 C195.68,230.91 192.03,231.65 188.72,233.14 C185.42,234.64 182.57,236.63 180.19,239.13 C177.80,241.64 175.97,244.53 174.69,247.81 C173.41,251.08 172.77,254.51 172.77,258.09 C172.77,264.76 174.73,269.95 178.67,273.64 C182.60,277.34 188.02,279.18 194.94,279.18 C198.45,279.18 201.58,278.69 204.32,277.71 C205.92,277.14 207.39,276.42 208.74,275.56 C210.30,274.56 210.66,272.42 209.51,270.96 C208.48,269.66 206.65,269.40 205.26,270.31 C202.51,272.11 199.07,273.02 194.94,273.02 C189.87,273.02 185.94,271.73 183.14,269.17 C180.33,266.61 178.94,262.91 178.94,258.09 C178.94,255.40 179.44,252.80 180.46,250.26 C181.47,247.73 182.90,245.48 184.74,243.52 C186.59,241.55 188.78,239.98 191.32,238.82 C193.85,237.66 196.63,237.08 199.68,237.08 C201.76,237.08 203.77,237.36 205.71,237.93 C207.65,238.49 209.36,239.27 210.85,240.25 C212.34,241.24 213.53,242.35 214.43,243.60 C215.32,244.85 215.77,246.20 215.77,247.63 C215.77,249.77 214.72,251.65 212.64,253.26 C210.55,254.87 207.72,255.67 204.14,255.67 C202.24,255.67 200.40,255.43 198.65,254.96 C196.89,254.48 195.22,253.90 193.64,253.21 C192.06,252.53 190.59,251.77 189.22,250.93 C188.93,250.76 188.64,250.58 188.37,250.41 C186.83,249.46 184.80,250.02 183.95,251.62 L183.93,251.66 C183.15,253.13 183.63,254.94 185.04,255.82 C185.48,256.09 185.95,256.37 186.44,256.65 C187.99,257.55 189.72,258.39 191.63,259.16 C193.54,259.93 195.56,260.57 197.71,261.08 C199.85,261.59 202.06,261.84 204.32,261.84 C206.94,261.84 209.34,261.47 211.52,260.72 C213.69,259.98 215.56,258.95 217.11,257.64 C218.66,256.33 219.85,254.82 220.68,253.12 C221.52,251.43 221.94,249.59 221.94,247.63 C221.94,245.30 221.34,243.13 220.15,241.10 C218.95,239.08 217.36,237.30 215.36,235.78" fill="#FFFFFF"/>
<path d="M253.30,232.70 L251.26,232.70 C246.67,232.70 243.12,233.89 240.62,236.27 C240.34,236.54 240.08,236.81 239.82,237.10 C238.27,238.85 235.35,237.64 235.35,235.30 C235.35,233.86 234.18,232.70 232.74,232.70 L231.69,232.70 C230.25,232.70 229.09,233.86 229.09,235.30 L229.09,274.79 C229.09,276.23 230.25,277.40 231.69,277.40 L232.74,277.40 C234.18,277.40 235.35,276.23 235.35,274.79 L235.35,262.73 C235.35,259.10 235.63,255.81 236.19,252.86 C236.76,249.91 237.68,247.40 238.96,245.35 C240.25,243.29 241.90,241.71 243.93,240.61 C245.95,239.51 248.40,238.96 251.26,238.96 L253.30,238.96 C254.74,238.96 255.91,237.79 255.91,236.35 L255.91,235.30 C255.91,233.86 254.74,232.70 253.30,232.70" fill="#FFFFFF"/>
<path d="M282.46,230.91 C280.61,230.91 278.86,231.30 277.23,232.07 C275.59,232.85 274.08,233.92 272.71,235.29 C271.34,236.66 270.15,238.31 269.14,240.25 C269.13,240.27 269.12,240.29 269.11,240.31 C268.47,241.53 266.63,241.12 266.63,239.74 L266.63,234.00 C266.63,233.28 266.05,232.70 265.33,232.70 L261.68,232.70 C260.96,232.70 260.37,233.28 260.37,234.00 L260.37,276.09 C260.37,276.81 260.96,277.40 261.68,277.40 L265.33,277.40 C266.05,277.40 266.63,276.81 266.63,276.09 L266.63,257.10 C266.63,254.72 267.05,252.34 267.88,249.95 C268.72,247.57 269.83,245.44 271.24,243.56 C272.63,241.68 274.23,240.15 276.02,238.96 C277.81,237.76 279.65,237.17 281.56,237.17 C284.18,237.17 286.12,238.39 287.37,240.83 C288.62,243.28 289.25,247.12 289.25,252.36 L289.25,276.09 C289.25,276.81 289.83,277.40 290.55,277.40 L294.20,277.40 C294.92,277.40 295.51,276.81 295.51,276.09 L295.51,250.04 C295.51,244.14 294.33,239.48 291.98,236.05 C289.62,232.62 286.45,230.91 282.46,230.91" fill="#FFFFFF"/>
<path d="M354.64,245.26 C353.54,242.37 352.02,239.87 350.08,237.75 C348.15,235.63 345.90,233.96 343.33,232.74 C340.77,231.52 338.06,230.91 335.20,230.91 C332.64,230.91 330.19,231.39 327.87,232.34 C325.54,233.29 323.49,234.59 321.70,236.23 C319.91,237.87 318.48,239.80 317.41,242.04 C316.34,244.27 315.77,246.67 315.71,249.24 C315.65,253.47 316.80,257.04 319.15,259.96 C320.88,262.11 323.04,263.96 325.63,265.49 C327.18,266.41 329.17,265.88 330.00,264.29 C330.75,262.83 330.23,261.01 328.80,260.21 C326.71,259.05 325.15,257.71 324.11,256.21 C322.68,254.12 321.97,251.95 321.97,249.68 C321.97,247.96 322.34,246.33 323.08,244.81 C323.83,243.29 324.83,241.96 326.08,240.83 C327.33,239.70 328.76,238.81 330.37,238.15 C331.98,237.50 333.62,237.17 335.29,237.17 C337.25,237.17 339.13,237.60 340.92,238.46 C342.71,239.33 344.27,240.55 345.61,242.13 C346.95,243.71 348.03,245.57 348.83,247.72 C349.64,249.86 350.04,252.19 350.04,254.69 C350.04,257.61 349.52,260.22 348.47,262.51 C347.43,264.81 345.99,266.71 344.14,268.23 C342.29,269.75 340.14,270.91 337.70,271.72 C335.26,272.52 332.64,272.93 329.83,272.93 C326.62,272.93 323.67,272.43 320.99,271.45 C318.30,270.47 315.99,269.10 314.06,267.34 C312.12,265.58 310.63,263.50 309.59,261.08 C308.54,258.67 308.02,256.03 308.02,253.17 C308.02,251.26 308.21,249.49 308.60,247.85 C308.99,246.21 309.50,244.71 310.12,243.33 C310.75,241.96 311.42,240.71 312.13,239.58 C312.26,239.37 312.39,239.17 312.52,238.97 C313.42,237.59 313.06,235.75 311.70,234.80 L311.60,234.72 C310.19,233.74 308.24,234.08 307.29,235.51 C307.07,235.83 306.86,236.16 306.64,236.50 C305.77,237.84 304.98,239.36 304.27,241.05 C303.55,242.75 302.96,244.62 302.48,246.64 C302.00,248.67 301.76,250.84 301.76,253.17 C301.76,256.74 302.44,260.11 303.78,263.27 C305.12,266.43 307.01,269.19 309.45,271.54 C311.90,273.89 314.83,275.76 318.26,277.13 C321.68,278.50 325.48,279.18 329.66,279.18 C333.47,279.18 337.00,278.60 340.25,277.44 C343.50,276.28 346.31,274.64 348.70,272.52 C351.08,270.41 352.94,267.85 354.28,264.84 C355.63,261.83 356.30,258.44 356.30,254.69 C356.30,251.29 355.74,248.15 354.64,245.26" fill="#FFFFFF"/>
</svg>