<svg xmlns="http://www.w3.org/2000/svg" viewBox="0 0 182.3 182.2">
<path d="M100.20,97.95 L97.33,97.22 L98.06,100.08 C98.90,103.38 94.44,105.24 92.71,102.32 L91.18,99.79 L89.67,102.33 C87.96,105.25 83.48,103.41 84.32,100.12 L85.03,97.25 L82.17,97.98 C78.89,98.84 77.01,94.36 79.93,92.62 L82.48,91.10 L79.92,89.59 C76.99,87.88 78.84,83.40 82.13,84.22 L85.00,84.95 L84.27,82.08 C83.41,78.80 87.89,76.93 89.62,79.84 L91.15,82.39 L92.66,79.84 C94.37,76.91 98.85,78.77 98.01,82.05 L97.30,84.92 L100.16,84.17 C103.44,83.33 105.32,87.81 102.40,89.54 L99.85,91.07 L102.41,92.56 C105.33,94.29 103.48,98.77 100.20,97.95 M113.93,86.68 L129.27,77.52 C130.21,76.96 130.58,75.83 130.16,74.82 C129.75,73.83 128.67,73.29 127.62,73.56 L110.32,78.03 C108.56,78.47 106.76,77.98 105.48,76.71 C104.21,75.44 103.70,73.63 104.14,71.88 L108.51,54.56 C108.78,53.50 108.24,52.43 107.26,52.01 C106.22,51.59 105.11,51.97 104.56,52.93 L95.45,68.32 C94.55,69.86 92.93,70.80 91.12,70.80 C89.31,70.80 87.69,69.88 86.75,68.34 L77.60,52.99 C77.04,52.05 75.91,51.67 74.90,52.10 C74.63,52.20 74.37,52.37 74.20,52.56 C73.67,53.09 73.45,53.86 73.64,54.63 L78.11,71.94 C78.55,73.69 78.06,75.50 76.79,76.79 L76.77,76.79 C75.50,78.06 73.71,78.55 71.96,78.12 L54.63,73.74 C53.58,73.47 52.52,74.01 52.10,75.01 C51.67,76.02 52.05,77.14 52.98,77.69 L68.38,86.79 C69.94,87.72 70.88,89.32 70.88,91.15 C70.88,92.94 69.96,94.58 68.42,95.50 L53.07,104.65 C52.12,105.21 51.75,106.35 52.18,107.35 C52.59,108.35 53.66,108.89 54.71,108.61 L72.02,104.16 C73.77,103.71 75.58,104.21 76.85,105.48 C78.14,106.75 78.63,108.54 78.20,110.29 L73.82,127.62 C73.55,128.68 74.09,129.75 75.10,130.16 C76.11,130.58 77.22,130.19 77.79,129.26 L86.88,113.86 C87.78,112.32 89.42,111.39 91.21,111.37 C93.02,111.37 94.66,112.29 95.58,113.83 L104.73,129.19 C105.29,130.13 106.41,130.51 107.43,130.08 C108.43,129.67 108.97,128.61 108.69,127.54 L104.22,110.24 C103.78,108.48 104.27,106.68 105.54,105.40 L105.56,105.40 C106.83,104.13 108.64,103.62 110.37,104.06 L127.72,108.45 C128.77,108.70 129.83,108.18 130.23,107.16 C130.66,106.16 130.27,105.03 129.35,104.48 L113.96,95.39 C112.39,94.47 111.47,92.85 111.47,91.04 C111.45,89.24 112.37,87.61 113.93,86.68" fill="#FFFFFF"/>
<path d="M103.67,169.16 C102.87,169.75 101.76,169.57 101.20,168.78 L92.86,157.45 L92.86,170.97 C92.85,171.96 92.05,172.75 91.09,172.75 C90.10,172.75 89.31,171.96 89.31,170.97 L89.31,157.45 L80.97,168.78 C80.38,169.57 79.28,169.75 78.49,169.16 C77.69,168.57 77.52,167.48 78.11,166.68 L89.31,151.47 L89.31,139.93 L82.54,150.92 C82.01,151.77 80.92,152.04 80.08,151.51 C79.25,151.00 79.00,149.91 79.50,149.07 L89.31,133.16 L89.31,126.99 C89.32,126.87 89.42,126.08 90.12,125.64 C90.23,125.57 90.61,125.37 91.09,125.40 C91.77,125.46 92.37,126.00 92.63,126.78 C92.71,128.88 92.78,130.96 92.85,133.04 L102.68,149.07 C103.17,149.91 102.92,151.00 102.08,151.51 C101.24,152.04 100.16,151.77 99.63,150.92 L92.86,139.85 L92.86,151.47 L104.05,166.68 C104.65,167.46 104.46,168.57 103.67,169.16 M110.20,165.38 C109.42,164.08 108.62,162.79 107.84,161.50 L106.22,158.84 C107.67,156.42 108.34,152.88 108.62,150.97 C109.40,145.73 108.61,144.82 108.27,144.44 C108.15,144.30 108.04,144.13 107.92,143.94 L94.07,122.12 C93.93,121.89 93.74,121.66 93.55,121.47 C92.83,120.76 91.86,120.35 90.82,120.36 C89.50,120.38 88.29,121.08 87.59,122.20 C84.91,126.65 78.27,137.68 74.37,143.81 L74.29,143.94 C74.18,144.16 74.06,144.33 73.94,144.48 C73.61,144.87 72.83,145.75 73.61,150.99 C73.90,152.91 74.58,156.45 76.04,158.87 L72.05,165.43 C71.82,165.81 71.67,166.22 71.59,166.64 C71.31,168.57 71.93,170.48 73.40,172.16 C73.55,172.34 73.72,172.51 73.90,172.70 C77.20,176.01 83.71,178.15 90.86,178.25 L91.42,178.25 C98.95,178.14 105.76,175.75 108.88,172.13 C110.34,170.45 110.94,168.53 110.66,166.59 C110.59,166.18 110.45,165.76 110.20,165.38" fill="#FFFFFF"/>
<path d="M78.63,13.09 C79.41,12.50 80.54,12.69 81.09,13.48 L89.43,24.79 L89.43,11.29 C89.43,10.31 90.23,9.51 91.21,9.51 C92.20,9.51 92.99,10.31 92.98,11.29 L92.99,24.81 L101.33,13.47 C101.92,12.69 103.01,12.50 103.81,13.10 C104.60,13.67 104.78,14.79 104.19,15.58 L92.98,30.78 L92.98,42.32 L99.76,31.32 C100.28,30.48 101.38,30.23 102.22,30.74 C103.05,31.24 103.30,32.35 102.79,33.20 L92.98,49.10 L92.98,55.26 C92.98,55.37 92.88,56.18 92.18,56.61 C92.07,56.68 91.69,56.90 91.21,56.85 C90.53,56.80 89.93,56.25 89.67,55.47 C89.59,53.39 89.51,51.29 89.43,49.21 L79.62,33.18 C79.12,32.34 79.38,31.24 80.22,30.74 C81.05,30.23 82.14,30.50 82.67,31.34 L89.43,42.40 L89.43,30.78 L78.25,15.58 C77.65,14.79 77.84,13.67 78.63,13.09 M72.10,16.88 C72.88,18.17 73.67,19.46 74.45,20.76 L76.07,23.41 C74.63,25.83 73.96,29.38 73.67,31.29 C72.90,36.52 73.67,37.42 74.02,37.82 C74.15,37.96 74.26,38.14 74.37,38.33 L88.23,60.12 C88.37,60.36 88.56,60.58 88.75,60.77 C89.46,61.51 90.43,61.90 91.48,61.89 C92.80,61.87 94.01,61.17 94.71,60.04 C97.39,55.60 104.03,44.59 107.92,38.44 L107.99,38.31 C108.11,38.11 108.23,37.91 108.35,37.77 C108.69,37.39 109.46,36.50 108.69,31.26 C108.40,29.34 107.72,25.79 106.26,23.38 L110.24,16.83 C110.48,16.44 110.62,16.04 110.70,15.61 C110.97,13.67 110.37,11.77 108.89,10.08 C108.73,9.91 108.57,9.73 108.40,9.56 C105.10,6.26 98.58,4.10 91.43,4.00 L90.88,4.00 C83.35,4.11 76.53,6.49 73.42,10.13 C71.96,11.80 71.35,13.72 71.63,15.68 C71.70,16.07 71.85,16.49 72.10,16.88" fill="#FFFFFF"/>
<path d="M170.97,92.96 L157.45,92.97 L168.80,101.31 C169.58,101.89 169.75,103.00 169.16,103.79 C168.57,104.59 167.48,104.75 166.68,104.17 L151.47,92.96 L139.93,92.96 L150.94,99.74 C151.78,100.27 152.04,101.36 151.51,102.19 C151.01,103.01 149.91,103.28 149.07,102.78 L133.17,92.96 L126.99,92.96 C126.89,92.94 126.08,92.86 125.64,92.15 C125.57,92.04 125.37,91.67 125.40,91.20 C125.46,90.51 126.02,89.89 126.78,89.64 C128.88,89.56 130.96,89.50 133.04,89.42 L149.08,79.60 C149.93,79.09 151.01,79.36 151.51,80.20 C152.04,81.03 151.77,82.12 150.93,82.63 L139.85,89.40 L151.47,89.40 L166.68,78.22 C167.46,77.63 168.57,77.80 169.18,78.60 C169.75,79.39 169.58,80.50 168.78,81.08 L157.47,89.40 L170.97,89.40 C171.96,89.42 172.75,90.21 172.75,91.18 C172.75,92.18 171.96,92.97 170.97,92.96 M172.13,73.40 C170.45,71.94 168.53,71.32 166.59,71.61 C166.19,71.67 165.76,71.81 165.38,72.07 C164.10,72.85 162.79,73.64 161.51,74.44 L158.84,76.06 C156.44,74.61 152.88,73.93 150.97,73.64 C145.73,72.88 144.84,73.66 144.44,74.01 C144.30,74.12 144.13,74.25 143.94,74.34 L122.13,88.19 C121.90,88.35 121.66,88.53 121.47,88.73 C120.76,89.45 120.36,90.42 120.36,91.45 C120.38,92.78 121.08,93.99 122.22,94.67 C126.65,97.37 137.68,104.00 143.81,107.91 L143.95,107.97 C144.16,108.10 144.33,108.21 144.48,108.32 C144.87,108.65 145.76,109.45 150.99,108.65 C152.91,108.37 156.45,107.68 158.87,106.22 L165.43,110.23 C165.81,110.46 166.22,110.61 166.65,110.67 C168.57,110.96 170.48,110.34 172.16,108.88 C172.34,108.72 172.53,108.56 172.71,108.37 C176.01,105.06 178.17,98.57 178.27,91.40 L178.27,90.85 C178.14,83.33 175.76,76.52 172.13,73.40" fill="#FFFFFF"/>
<path d="M15.58,104.03 C14.80,104.62 13.69,104.44 13.09,103.65 C12.51,102.85 12.69,101.74 13.48,101.17 L24.79,92.85 L11.29,92.85 C10.31,92.83 9.51,92.04 9.51,91.07 C9.51,90.07 10.31,89.27 11.29,89.29 L24.81,89.27 L13.47,80.93 C12.69,80.36 12.51,79.25 13.10,78.45 C13.69,77.66 14.79,77.50 15.58,78.07 L30.80,89.29 L42.32,89.29 L31.32,82.51 C30.48,82.00 30.23,80.89 30.75,80.06 C31.26,79.23 32.36,78.96 33.20,79.47 L49.10,89.29 L55.28,89.29 C55.37,89.30 56.18,89.38 56.61,90.10 C56.69,90.21 56.90,90.58 56.85,91.05 C56.80,91.74 56.25,92.35 55.47,92.61 C53.39,92.69 51.31,92.75 49.21,92.83 L33.18,102.65 C32.34,103.16 31.26,102.89 30.75,102.04 C30.23,101.22 30.50,100.12 31.34,99.61 L42.41,92.85 L30.80,92.85 L15.58,104.03 M31.29,108.61 C36.53,109.37 37.42,108.59 37.82,108.24 C37.96,108.13 38.14,108.00 38.33,107.91 L60.12,94.05 C60.36,93.90 60.58,93.72 60.77,93.51 C61.51,92.82 61.90,91.83 61.89,90.80 C61.89,89.46 61.19,88.26 60.04,87.57 C55.60,84.89 44.59,78.25 38.44,74.34 L38.31,74.28 C38.11,74.17 37.93,74.04 37.79,73.93 C37.39,73.59 36.50,72.80 31.26,73.59 C29.35,73.88 25.81,74.56 23.38,76.02 L16.84,72.02 C16.44,71.78 16.04,71.64 15.61,71.58 C13.69,71.29 11.77,71.91 10.10,73.37 C9.91,73.53 9.73,73.69 9.56,73.88 C6.26,77.18 4.10,83.68 4.00,90.85 L4.00,91.40 C4.13,98.92 6.51,105.73 10.13,108.84 C11.82,110.31 13.74,110.92 15.68,110.64 C16.07,110.58 16.49,110.43 16.88,110.18 C18.17,109.40 19.47,108.61 20.76,107.83 L23.43,106.19 C25.83,107.64 29.39,108.32 31.29,108.61" fill="#FFFFFF"/>
<path d="M153.91,139.68 L140.03,137.56 L149.58,147.11 C150.26,147.81 150.26,148.94 149.58,149.62 C148.88,150.34 147.75,150.34 147.07,149.62 L137.49,140.07 L139.62,153.99 C139.76,154.96 139.11,155.86 138.12,156.01 C137.15,156.15 136.25,155.48 136.10,154.51 L133.28,135.83 L125.13,127.68 L128.10,140.25 C128.34,141.22 127.73,142.17 126.78,142.39 C125.83,142.62 124.87,142.03 124.64,141.08 L120.33,122.89 L115.96,118.53 C115.90,118.44 115.39,117.80 115.58,117.01 C115.61,116.88 115.72,116.47 116.09,116.15 C116.61,115.71 117.44,115.67 118.17,116.04 C119.69,117.45 121.22,118.88 122.75,120.30 L141.03,124.70 C141.98,124.94 142.57,125.89 142.33,126.84 C142.11,127.80 141.14,128.38 140.19,128.16 L127.57,125.11 L135.79,133.32 L154.45,136.17 C155.42,136.31 156.09,137.22 155.95,138.20 C155.79,139.17 154.88,139.84 153.91,139.68 M159.06,131.43 C158.73,131.19 158.33,131.00 157.88,130.91 C156.41,130.54 154.95,130.19 153.47,129.83 L150.43,129.10 C149.77,126.37 147.72,123.38 146.57,121.82 C143.41,117.58 142.22,117.50 141.71,117.47 C141.52,117.44 141.32,117.41 141.11,117.34 L115.90,111.72 C115.61,111.67 115.34,111.62 115.06,111.64 C114.04,111.62 113.07,112.04 112.34,112.78 C111.42,113.72 111.05,115.07 111.37,116.36 C112.61,121.41 115.71,133.90 117.30,141.00 L117.34,141.12 C117.41,141.36 117.44,141.57 117.46,141.76 C117.50,142.27 117.58,143.46 121.84,146.60 C123.40,147.76 126.38,149.78 129.13,150.45 L130.94,157.91 C131.04,158.36 131.23,158.74 131.48,159.09 C132.64,160.66 134.42,161.57 136.66,161.73 C136.90,161.74 137.14,161.74 137.39,161.74 C142.06,161.74 148.18,158.68 153.31,153.69 L153.71,153.29 C158.95,147.89 162.08,141.38 161.71,136.61 C161.55,134.39 160.63,132.61 159.06,131.43" fill="#FFFFFF"/>
<path d="M29.86,44.09 L43.76,46.21 L34.21,36.66 C33.52,35.95 33.52,34.83 34.21,34.13 C34.91,33.44 36.04,33.44 36.72,34.13 L46.29,43.70 L44.17,29.78 C44.03,28.81 44.68,27.91 45.67,27.76 C46.64,27.62 47.53,28.27 47.69,29.24 L50.51,47.94 L58.66,56.09 L55.68,43.52 C55.45,42.55 56.06,41.58 57.01,41.38 C57.95,41.14 58.92,41.74 59.15,42.70 L63.46,60.87 L67.83,65.24 C67.89,65.32 68.40,65.95 68.21,66.76 C68.18,66.89 68.07,67.30 67.70,67.62 C67.18,68.05 66.35,68.10 65.62,67.73 C64.09,66.30 62.57,64.89 61.03,63.46 L42.76,59.07 C41.81,58.84 41.22,57.88 41.46,56.93 C41.68,55.96 42.63,55.39 43.60,55.61 L56.22,58.66 L48.00,50.45 L29.34,47.61 C28.37,47.46 27.70,46.56 27.84,45.57 C27.99,44.60 28.91,43.94 29.86,44.09 M24.73,52.34 C25.06,52.58 25.46,52.77 25.91,52.86 C27.37,53.23 28.84,53.58 30.31,53.94 L33.34,54.67 C34.02,57.41 36.06,60.39 37.20,61.93 C40.36,66.19 41.55,66.27 42.08,66.30 C42.25,66.32 42.47,66.37 42.68,66.43 L67.89,72.04 C68.16,72.10 68.45,72.13 68.73,72.13 C69.73,72.13 70.72,71.74 71.43,70.99 C72.37,70.04 72.74,68.70 72.42,67.40 C71.18,62.36 68.07,49.88 66.49,42.78 L66.45,42.63 C66.38,42.41 66.33,42.19 66.32,42.01 C66.29,41.51 66.21,40.31 61.95,37.17 C60.39,36.01 57.41,33.99 54.66,33.31 L52.85,25.86 C52.74,25.41 52.56,25.03 52.31,24.68 C51.15,23.11 49.35,22.19 47.13,22.05 C46.89,22.03 46.65,22.01 46.40,22.01 C41.73,22.01 35.60,25.10 30.47,30.08 L30.08,30.48 C24.84,35.88 21.71,42.38 22.06,47.16 C22.22,49.37 23.14,51.16 24.73,52.34" fill="#FFFFFF"/>
<path d="M115.37,64.78 C116.79,63.25 118.22,61.73 119.63,60.20 L124.03,41.92 C124.27,40.97 125.22,40.39 126.18,40.62 C127.13,40.84 127.72,41.81 127.48,42.76 L124.45,55.37 L132.66,47.16 L135.50,28.49 C135.64,27.53 136.55,26.86 137.53,27.00 C138.50,27.16 139.17,28.07 139.01,29.04 L136.90,42.92 L146.45,33.37 C147.14,32.69 148.27,32.69 148.96,33.37 C149.65,34.07 149.65,35.20 148.96,35.88 L139.41,45.46 L153.32,43.33 C154.29,43.19 155.18,43.84 155.33,44.83 C155.48,45.79 154.82,46.70 153.85,46.84 L135.17,49.67 L127.02,57.84 L139.58,54.85 C140.55,54.63 141.51,55.21 141.73,56.17 C141.95,57.12 141.36,58.07 140.41,58.31 L122.22,62.62 L117.85,66.99 C117.77,67.05 117.14,67.56 116.33,67.37 C116.20,67.34 115.79,67.22 115.48,66.86 C115.04,66.33 114.99,65.51 115.37,64.78 M115.69,71.58 C120.74,70.34 133.23,67.24 140.31,65.65 L140.46,65.62 C140.70,65.54 140.90,65.51 141.09,65.49 C141.60,65.44 142.78,65.37 145.94,61.11 C147.08,59.55 149.11,56.56 149.78,53.82 L157.25,52.02 C157.69,51.91 158.07,51.72 158.42,51.47 C160.00,50.31 160.90,48.53 161.06,46.29 C161.08,46.06 161.08,45.81 161.08,45.56 C161.08,40.89 158.01,34.77 153.01,29.64 L152.63,29.24 C147.21,24.00 140.71,20.87 135.95,21.24 C133.72,21.39 131.93,22.32 130.77,23.89 C130.53,24.22 130.34,24.62 130.23,25.06 C129.88,26.54 129.51,28.02 129.16,29.48 L128.42,32.51 C125.70,33.18 122.71,35.23 121.16,36.37 C116.91,39.54 116.82,40.73 116.79,41.24 C116.77,41.43 116.74,41.63 116.68,41.84 L111.05,67.05 C110.99,67.34 110.96,67.62 110.97,67.89 C110.96,68.91 111.37,69.88 112.12,70.61 C113.05,71.53 114.40,71.89 115.69,71.58" fill="#FFFFFF"/>
<path d="M67.07,117.33 C65.64,118.85 64.22,120.39 62.79,121.92 L58.41,140.20 C58.17,141.14 57.20,141.73 56.25,141.49 C55.30,141.28 54.72,140.31 54.95,139.34 L58.00,126.73 L49.78,134.94 L46.92,153.61 C46.80,154.59 45.88,155.25 44.91,155.10 C43.94,154.96 43.27,154.04 43.43,153.08 L45.54,139.19 L35.99,148.73 C35.28,149.43 34.17,149.43 33.47,148.73 C32.77,148.03 32.77,146.91 33.47,146.22 L43.03,136.66 L29.12,138.77 C28.15,138.92 27.24,138.26 27.10,137.28 C26.94,136.31 27.61,135.42 28.58,135.26 L47.26,132.43 L55.42,124.28 L42.84,127.27 C41.89,127.49 40.92,126.91 40.70,125.94 C40.47,125.00 41.08,124.03 42.03,123.79 L60.20,119.49 L64.57,115.13 C64.65,115.05 65.29,114.55 66.10,114.74 C66.22,114.77 66.64,114.90 66.94,115.26 C67.38,115.79 67.43,116.60 67.07,117.33 M66.73,110.53 C61.70,111.78 49.21,114.88 42.11,116.45 L41.97,116.50 C41.73,116.56 41.52,116.61 41.35,116.63 C40.82,116.68 39.65,116.74 36.50,121.00 C35.34,122.55 33.33,125.56 32.64,128.29 L25.19,130.10 C24.75,130.21 24.37,130.38 24.00,130.64 C22.44,131.81 21.52,133.59 21.38,135.82 C21.36,136.06 21.35,136.29 21.35,136.55 C21.35,141.22 24.43,147.35 29.42,152.48 L29.81,152.86 C35.22,158.10 41.71,161.23 46.48,160.88 C48.70,160.73 50.50,159.80 51.67,158.22 C51.91,157.88 52.10,157.50 52.20,157.04 C52.56,155.58 52.91,154.10 53.28,152.64 L54.01,149.61 C56.73,148.92 59.73,146.89 61.27,145.75 C65.53,142.58 65.60,141.39 65.64,140.87 C65.65,140.69 65.70,140.47 65.75,140.27 L71.37,115.05 C71.44,114.78 71.47,114.50 71.47,114.23 C71.47,113.21 71.07,112.24 70.32,111.51 C69.37,110.58 68.02,110.21 66.73,110.53" fill="#FFFFFF"/>
</svg>