<svg xmlns="http://www.w3.org/2000/svg" viewBox="0 0 106.0 126.2">
<path d="M44.74,38.77 C44.85,38.69 44.95,38.62 45.05,38.55 C45.05,38.56 45.05,38.57 45.05,38.57 C44.95,38.64 44.85,38.70 44.74,38.77 M100.17,59.44 C99.96,59.27 99.91,58.96 100.07,58.73 L100.07,58.73 C100.68,57.84 100.19,56.62 99.13,56.42 C98.86,56.36 98.67,56.11 98.71,55.83 C98.84,54.76 97.84,53.91 96.81,54.22 C96.54,54.30 96.26,54.16 96.16,53.90 C95.78,52.89 94.49,52.60 93.72,53.35 C93.53,53.55 93.21,53.56 93.00,53.37 C92.20,52.66 90.93,53.00 90.59,54.02 C90.51,54.29 90.23,54.44 89.96,54.37 C88.92,54.11 87.95,55.01 88.13,56.07 C88.18,56.34 88.01,56.61 87.73,56.67 C86.98,56.86 86.54,57.56 86.60,58.25 C84.29,57.35 82.02,56.36 79.80,55.25 C72.40,51.58 65.54,46.80 59.35,41.02 C59.89,40.72 60.36,40.31 60.72,39.82 C61.24,40.04 61.82,40.16 62.42,40.16 C62.97,40.16 63.49,40.05 63.98,39.87 C67.07,41.98 70.32,43.84 73.71,45.43 C77.16,47.05 80.77,48.39 84.47,49.43 C84.55,49.51 84.64,49.59 84.75,49.64 C84.92,49.72 84.99,49.91 84.93,50.08 C84.68,50.73 85.18,51.42 85.88,51.39 C86.06,51.38 86.21,51.51 86.23,51.69 C86.32,52.38 87.08,52.76 87.68,52.41 C87.84,52.32 88.04,52.36 88.14,52.51 C88.53,53.09 89.39,53.07 89.75,52.48 C89.85,52.32 90.05,52.27 90.21,52.35 C90.82,52.68 91.57,52.26 91.62,51.57 C91.63,51.39 91.78,51.25 91.96,51.25 C92.66,51.25 93.13,50.54 92.85,49.90 C92.78,49.74 92.85,49.54 93.01,49.46 C93.63,49.14 93.71,48.29 93.17,47.85 C93.03,47.74 93.00,47.54 93.10,47.39 C93.50,46.82 93.18,46.02 92.49,45.89 C92.32,45.85 92.20,45.69 92.22,45.51 C92.30,44.82 91.65,44.27 90.99,44.47 C90.81,44.52 90.63,44.43 90.57,44.26 C90.32,43.60 89.49,43.42 88.99,43.91 C88.86,44.03 88.65,44.04 88.52,43.92 C88.00,43.45 87.18,43.68 86.96,44.34 C86.90,44.51 86.72,44.61 86.55,44.57 C85.87,44.40 85.25,44.98 85.36,45.66 C85.40,45.84 85.28,46.01 85.11,46.06 C84.68,46.16 84.41,46.52 84.37,46.92 C81.06,45.95 77.83,44.73 74.72,43.27 C73.18,42.54 71.66,41.76 70.17,40.92 C70.69,40.67 71.17,40.35 71.57,39.94 C72.02,40.08 72.51,40.15 73.00,40.15 C75.01,40.15 76.75,39.01 77.61,37.35 C78.46,39.01 80.20,40.15 82.21,40.15 C83.67,40.15 84.99,39.54 85.93,38.56 C86.69,39.42 87.80,39.96 89.03,39.96 C90.74,39.96 92.21,38.94 92.86,37.46 C93.41,37.65 94.00,37.74 94.61,37.74 C97.68,37.74 100.18,35.25 100.18,32.17 C100.18,29.74 98.63,27.68 96.47,26.92 C96.83,25.73 96.74,24.39 96.14,23.19 C94.88,20.70 91.84,19.70 89.34,20.96 C88.75,21.26 88.23,21.67 87.82,22.14 C87.75,21.89 87.66,21.63 87.53,21.38 C86.48,19.32 83.98,18.49 81.91,19.53 C81.59,19.69 81.30,19.89 81.04,20.12 C80.99,19.45 80.82,18.77 80.50,18.13 C79.23,15.64 76.19,14.63 73.70,15.89 C73.54,15.97 73.39,16.06 73.24,16.16 C73.28,15.27 73.09,14.35 72.66,13.50 C71.30,10.81 68.02,9.73 65.32,11.10 C64.26,11.64 63.44,12.48 62.94,13.47 C61.73,12.86 60.27,12.78 58.94,13.40 C58.88,12.91 58.74,12.43 58.50,11.96 C57.38,9.76 54.72,8.86 52.51,9.91 C52.42,9.45 52.26,8.98 52.04,8.53 C50.76,6.00 47.68,5.00 45.15,6.27 C43.28,7.22 42.24,9.17 42.36,11.13 C41.71,11.13 41.06,11.28 40.44,11.59 C39.23,12.21 38.43,13.34 38.21,14.59 C36.72,13.84 34.90,13.79 33.30,14.60 C32.75,14.88 32.27,15.23 31.87,15.64 C30.82,14.46 29.29,13.71 27.58,13.71 C24.40,13.71 21.82,16.29 21.82,19.47 C21.82,19.57 21.82,19.67 21.83,19.77 C21.33,19.57 20.77,19.47 20.20,19.47 C17.66,19.47 15.60,21.53 15.60,24.07 L15.60,24.07 C13.57,24.18 11.91,25.65 11.53,27.59 C10.89,27.23 10.16,27.02 9.37,27.02 C6.96,27.02 5.00,28.98 5.00,31.40 C5.00,32.80 5.65,34.04 6.67,34.84 C6.52,35.25 6.44,35.70 6.44,36.17 C6.44,38.36 8.23,40.15 10.43,40.15 C11.87,40.15 13.13,39.39 13.83,38.25 C14.59,38.94 15.61,39.35 16.72,39.35 C17.84,39.35 18.86,38.93 19.64,38.24 C20.11,40.52 22.14,42.24 24.56,42.24 C26.24,42.24 27.73,41.42 28.64,40.14 C29.47,41.15 30.75,41.81 32.18,41.81 C34.47,41.81 36.36,40.13 36.71,37.93 C37.84,39.12 39.44,39.86 41.22,39.86 C42.29,39.86 43.30,39.59 44.19,39.11 C39.00,42.28 33.45,44.73 27.64,46.41 C25.13,47.13 22.56,47.71 19.97,48.13 C20.23,47.32 19.74,46.40 18.84,46.22 C18.56,46.17 18.38,45.91 18.41,45.64 C18.55,44.57 17.54,43.72 16.51,44.02 C16.24,44.10 15.96,43.96 15.86,43.70 C15.48,42.70 14.20,42.41 13.43,43.16 C13.23,43.36 12.91,43.36 12.70,43.18 C11.90,42.46 10.63,42.81 10.30,43.83 C10.21,44.09 9.93,44.25 9.66,44.18 C8.62,43.92 7.66,44.81 7.84,45.87 C7.88,46.15 7.71,46.41 7.44,46.48 C6.39,46.73 5.96,47.97 6.61,48.83 C6.78,49.05 6.74,49.36 6.54,49.55 C5.73,50.26 5.92,51.56 6.89,52.02 C7.15,52.13 7.26,52.43 7.16,52.69 C6.78,53.69 7.55,54.76 8.62,54.71 C8.90,54.69 9.15,54.90 9.18,55.17 C9.30,56.24 10.49,56.83 11.41,56.28 C11.65,56.14 11.96,56.21 12.12,56.44 C12.73,57.33 14.04,57.30 14.61,56.38 C14.76,56.15 15.06,56.07 15.31,56.20 C16.26,56.70 17.41,56.06 17.49,54.99 C17.51,54.71 17.74,54.49 18.02,54.50 C19.10,54.50 19.82,53.40 19.39,52.41 C19.28,52.16 19.39,51.86 19.63,51.73 C20.13,51.47 20.41,50.98 20.43,50.48 C23.09,50.04 25.72,49.45 28.30,48.70 C31.68,47.73 34.98,46.50 38.18,45.02 C38.88,44.70 39.48,45.61 38.92,46.14 C33.89,50.89 28.39,55.00 22.48,58.41 C21.16,59.17 19.82,59.90 18.46,60.59 C18.17,60.14 17.60,59.89 17.02,60.06 C16.79,60.13 16.55,60.01 16.46,59.78 C16.14,58.91 15.03,58.67 14.36,59.31 C14.19,59.48 13.92,59.49 13.74,59.33 C13.05,58.71 11.96,59.01 11.67,59.89 C11.59,60.12 11.36,60.25 11.12,60.19 C10.23,59.97 9.39,60.74 9.55,61.65 C9.59,61.89 9.44,62.11 9.21,62.17 C8.31,62.39 7.93,63.46 8.49,64.20 C8.64,64.39 8.61,64.66 8.43,64.82 C7.73,65.43 7.90,66.55 8.74,66.94 C8.95,67.04 9.05,67.30 8.97,67.52 C8.64,68.38 9.30,69.30 10.23,69.26 C10.47,69.25 10.68,69.42 10.70,69.66 C10.81,70.58 11.83,71.09 12.63,70.62 C12.83,70.50 13.10,70.55 13.24,70.75 C13.76,71.52 14.89,71.49 15.38,70.70 C15.51,70.50 15.77,70.43 15.99,70.54 C16.80,70.97 17.80,70.42 17.86,69.50 C17.88,69.26 18.08,69.08 18.32,69.08 C19.25,69.08 19.87,68.13 19.50,67.28 C19.41,67.06 19.50,66.81 19.71,66.70 C20.53,66.27 20.64,65.14 19.92,64.56 C19.73,64.41 19.69,64.14 19.83,63.94 C20.14,63.50 20.12,62.96 19.87,62.55 C21.16,61.89 22.43,61.20 23.67,60.48 C32.19,55.57 39.86,49.24 46.54,41.66 C47.29,42.48 48.25,43.09 49.35,43.40 C46.97,46.51 44.34,49.40 41.46,52.05 C39.37,53.97 37.15,55.76 34.82,57.41 C34.77,57.37 34.73,57.32 34.71,57.26 C34.46,56.60 33.63,56.42 33.13,56.91 C33.00,57.03 32.79,57.04 32.66,56.92 C32.14,56.45 31.32,56.68 31.10,57.34 C31.04,57.51 30.86,57.61 30.69,57.57 C30.01,57.40 29.39,57.98 29.51,58.66 C29.54,58.84 29.42,59.01 29.25,59.06 C28.57,59.22 28.29,60.02 28.71,60.58 C28.82,60.72 28.80,60.93 28.66,61.05 C28.14,61.51 28.26,62.35 28.89,62.64 C29.06,62.72 29.13,62.91 29.07,63.08 C28.82,63.73 29.32,64.42 30.02,64.39 C30.20,64.38 30.35,64.51 30.37,64.69 C30.46,65.38 31.22,65.76 31.82,65.41 C31.98,65.32 32.18,65.36 32.28,65.51 C32.67,66.09 33.53,66.07 33.89,65.47 C33.99,65.32 34.19,65.27 34.35,65.35 C34.96,65.68 35.71,65.26 35.76,64.57 C35.77,64.39 35.92,64.25 36.11,64.25 C36.80,64.25 37.27,63.54 36.99,62.90 C36.92,62.74 36.99,62.54 37.15,62.46 C37.77,62.14 37.85,61.29 37.31,60.85 C37.17,60.74 37.14,60.54 37.24,60.39 C37.61,59.86 37.36,59.16 36.79,58.94 C38.99,57.35 41.09,55.63 43.08,53.81 C45.45,51.63 47.65,49.29 49.69,46.81 C50.11,46.31 50.92,46.63 50.90,47.28 L48.02,120.45 C48.00,120.84 48.31,121.16 48.70,121.16 L56.20,121.16 C56.58,121.16 56.89,120.84 56.88,120.45 C56.02,96.45 55.17,72.44 54.32,48.43 C54.29,47.78 55.10,47.47 55.52,47.97 C56.48,49.14 57.47,50.28 58.49,51.39 C61.92,55.12 65.68,58.56 69.69,61.67 C69.19,62.09 69.06,62.86 69.50,63.43 C69.65,63.62 69.62,63.89 69.44,64.05 C68.74,64.66 68.91,65.78 69.74,66.17 C69.96,66.27 70.07,66.53 69.98,66.75 C69.65,67.61 70.31,68.53 71.24,68.49 C71.48,68.48 71.69,68.65 71.71,68.89 C71.82,69.81 72.84,70.32 73.64,69.85 C73.84,69.73 74.11,69.79 74.25,69.98 C74.77,70.75 75.90,70.72 76.39,69.93 C76.52,69.73 76.78,69.66 76.99,69.77 C77.81,70.20 78.81,69.65 78.87,68.73 C78.89,68.49 79.09,68.31 79.33,68.31 C80.26,68.31 80.88,67.36 80.51,66.51 C80.41,66.29 80.51,66.04 80.72,65.93 C81.54,65.50 81.65,64.37 80.93,63.79 C80.74,63.64 80.70,63.37 80.84,63.17 C81.37,62.41 80.94,61.36 80.03,61.18 C79.80,61.13 79.64,60.91 79.67,60.68 C79.78,59.76 78.92,59.02 78.03,59.29 C77.80,59.36 77.55,59.24 77.47,59.01 C77.15,58.14 76.04,57.90 75.38,58.54 C75.20,58.71 74.93,58.72 74.75,58.56 C74.06,57.94 72.97,58.24 72.68,59.12 C72.60,59.35 72.37,59.48 72.13,59.42 C71.72,59.32 71.31,59.43 71.02,59.67 C67.16,56.67 63.55,53.36 60.25,49.78 C58.17,47.51 56.22,45.12 54.38,42.65 C54.38,42.63 54.38,42.61 54.37,42.59 C54.89,42.24 55.34,41.81 55.72,41.32 C55.94,41.40 56.17,41.46 56.40,41.50 C63.10,48.01 70.60,53.35 78.74,57.39 C81.21,58.62 83.75,59.73 86.33,60.71 C86.28,61.31 86.58,61.93 87.19,62.21 C87.44,62.33 87.56,62.62 87.46,62.88 C87.08,63.88 87.85,64.95 88.92,64.90 C89.20,64.89 89.44,65.09 89.47,65.37 C89.60,66.44 90.78,67.02 91.71,66.48 C91.95,66.34 92.26,66.40 92.41,66.63 C93.02,67.52 94.34,67.49 94.91,66.58 C95.05,66.34 95.36,66.26 95.61,66.39 C96.55,66.89 97.71,66.25 97.79,65.18 C97.80,64.90 98.04,64.69 98.32,64.69 C99.39,64.69 100.11,63.59 99.69,62.61 C99.58,62.35 99.68,62.05 99.93,61.92 C100.88,61.43 101.01,60.12 100.17,59.44" fill="#FFFFFF"/>
</svg>