<svg xmlns="http://www.w3.org/2000/svg" viewBox="0 0 83.2 95.4">
<path d="M61.19,65.08 L61.16,65.08 C60.70,65.16 60.23,65.04 59.86,64.75 C59.50,64.45 59.28,64.02 59.25,63.55 L57.84,36.12 C57.77,34.75 58.28,33.40 59.24,32.42 C60.16,31.49 61.43,30.95 62.74,30.95 L66.07,30.95 C68.03,30.95 68.32,32.12 68.36,32.63 L70.36,60.62 C70.58,62.83 69.78,64.14 68.05,64.41 L61.19,65.08 M68.17,65.20 C70.33,64.86 71.42,63.17 71.16,60.56 L69.16,32.57 C69.13,32.17 68.84,30.15 66.07,30.15 L62.74,30.15 C61.22,30.15 59.29,30.36 58.22,31.44 C57.11,32.58 56.96,34.57 57.04,36.16 L58.29,63.60 C58.33,64.29 58.10,65.76 58.64,66.19 C59.08,66.54 59.62,66.73 60.17,66.73 C60.30,66.73 60.43,66.72 60.56,66.70 L68.10,65.21 L68.17,65.20" fill="#FFFFFF"/>
<path d="M75.64,67.44 C74.39,68.99 69.62,71.05 62.56,73.10 C59.21,74.08 59.09,76.11 59.28,78.94 C59.41,80.93 58.35,82.81 56.57,83.71 C55.23,84.38 53.43,84.99 51.22,85.49 C43.73,87.31 16.49,88.97 8.02,83.13 C6.60,82.16 5.80,80.52 5.90,78.81 C6.45,68.40 9.22,17.23 9.22,17.23 C9.44,17.44 9.68,17.62 9.94,17.79 C9.35,32.43 8.65,54.77 8.13,69.82 C8.24,80.42 23.66,77.96 32.60,78.76 C39.71,78.75 46.26,78.22 51.20,77.25 C54.73,76.55 57.20,73.41 57.07,69.80 L55.70,30.90 L55.49,25.10 C56.06,24.52 56.56,23.89 57.00,23.22 C60.37,28.00 68.76,23.02 72.61,27.20 C73.87,28.37 74.63,29.96 74.76,31.67 L77.06,62.77 C77.19,64.46 76.68,66.16 75.64,67.44 M13.90,69.53 C14.29,70.43 15.18,71.00 16.19,70.97 C16.69,70.96 17.22,70.82 17.76,70.59 C17.43,71.09 16.89,71.45 16.27,71.60 C15.51,71.80 14.58,71.57 14.00,70.98 C13.58,70.58 13.29,70.04 13.26,69.46 C13.22,68.92 13.42,68.34 13.81,67.98 C13.68,68.55 13.70,69.09 13.90,69.53 M21.41,75.11 C21.17,75.80 20.23,76.04 19.61,75.62 C18.97,75.23 18.75,74.23 19.44,73.80 C19.46,74.37 19.65,74.67 20.06,74.95 C20.45,75.19 20.89,75.19 21.41,75.11 M41.02,33.43 C31.65,33.84 20.81,33.80 12.33,31.67 C11.11,31.36 10.27,30.23 10.31,28.96 C10.46,24.73 10.65,19.66 10.72,18.23 C10.80,18.27 10.87,18.30 10.96,18.34 C11.10,18.41 11.24,18.46 11.38,18.52 C11.54,18.58 11.69,18.65 11.85,18.70 C11.98,18.75 12.12,18.80 12.25,18.85 C12.65,18.98 13.08,19.11 13.48,19.22 C13.68,19.28 13.90,19.33 14.11,19.38 L14.11,19.39 C14.25,19.42 14.49,19.47 14.62,19.51 L14.62,19.51 C15.61,19.74 16.61,19.92 17.60,20.08 C18.81,20.27 20.02,20.42 21.23,20.55 C22.44,20.67 23.66,20.77 24.87,20.85 C26.47,20.96 27.94,21.77 28.88,23.07 C30.72,25.63 31.52,27.89 36.01,29.04 C38.79,29.71 41.68,28.99 44.21,27.79 C45.73,27.19 46.98,25.66 48.70,25.66 C49.36,25.69 49.84,26.20 50.46,26.42 C51.87,26.92 53.50,26.57 54.71,25.74 L54.84,29.17 C54.88,30.42 54.06,31.53 52.85,31.86 C50.82,32.42 47.21,33.09 41.02,33.43 M50.73,65.43 C50.66,66.20 51.16,66.78 51.91,66.83 C52.14,66.85 52.40,66.82 52.71,66.74 C52.42,67.37 51.54,67.59 50.95,67.19 C50.34,66.81 50.12,65.88 50.73,65.43 M47.90,39.40 C48.28,40.38 49.28,41.02 50.35,40.95 C50.89,40.93 51.44,40.75 51.97,40.48 C50.94,41.83 48.83,41.88 47.81,40.44 C47.22,39.66 47.20,38.51 47.88,37.77 C47.71,38.35 47.71,38.92 47.90,39.40 M9.43,15.21 C9.52,15.04 9.65,14.88 9.83,14.72 C10.15,14.41 10.56,14.19 10.99,14.06 L10.99,14.06 C11.38,13.94 11.61,13.55 11.53,13.15 C11.38,12.38 11.54,11.41 12.49,11.08 C13.22,10.71 14.07,10.90 15.13,11.14 C16.46,11.43 17.65,12.67 19.57,11.92 C20.04,11.74 20.86,10.61 21.21,10.37 C22.25,9.42 24.34,9.19 25.64,9.68 C26.39,9.88 27.33,10.73 28.39,10.38 C28.86,10.21 29.25,9.93 29.60,9.61 C30.93,8.40 32.48,7.44 34.18,6.86 C37.41,5.76 41.25,6.75 43.76,8.77 C45.71,10.34 45.17,12.42 47.55,12.37 C48.65,12.37 51.28,12.53 52.45,12.91 C57.17,13.49 59.13,18.41 56.68,22.22 C55.83,23.62 54.73,25.14 53.07,25.66 C50.18,26.62 50.50,22.34 47.62,23.80 C45.88,24.81 43.50,27.45 41.53,27.98 C37.47,29.28 33.85,27.83 31.60,24.27 C31.27,23.76 30.99,23.27 30.71,22.80 C29.84,21.29 28.28,20.33 26.55,20.15 C26.54,20.15 26.53,20.15 26.52,20.15 C22.45,19.92 18.35,19.57 14.37,18.62 C14.00,18.53 13.62,18.43 13.26,18.32 C12.73,18.17 12.21,17.99 11.71,17.79 C11.64,17.76 11.57,17.74 11.51,17.71 C10.69,17.33 9.36,16.74 9.30,15.71 C9.30,15.54 9.35,15.37 9.43,15.21 M77.86,62.71 L75.56,31.61 C75.34,27.75 71.86,24.52 67.99,24.59 L61.08,24.59 C59.58,24.59 58.18,23.75 57.47,22.44 C59.44,18.94 58.77,14.87 54.94,12.85 C54.23,12.45 53.46,12.21 52.58,12.12 C51.35,11.69 50.43,11.45 49.27,11.42 C48.42,11.41 47.58,11.04 46.98,10.40 C46.15,9.50 45.21,8.73 44.18,8.09 C38.55,5.00 33.88,5.24 29.21,8.29 C28.39,9.06 26.89,9.34 25.85,8.91 C22.99,8.11 21.96,8.98 19.74,10.30 C16.87,11.56 14.68,9.37 12.13,10.37 C10.78,10.90 10.27,11.74 9.96,13.61 C9.00,14.22 8.51,14.92 8.51,15.69 L8.50,15.69 C8.50,15.70 5.00,80.66 5.00,80.67 C7.56,90.44 43.01,88.35 51.40,86.27 C59.84,84.20 60.76,83.17 60.01,77.45 C59.91,75.65 61.05,74.37 62.78,73.87 C70.23,71.26 78.20,70.29 77.86,62.71" fill="#FFFFFF"/>
<path d="M10.02,80.54 C21.73,84.67 37.62,84.79 49.70,82.15 C51.56,81.71 53.41,81.20 55.19,80.53 C47.78,82.23 40.19,82.74 32.61,82.77 C25.03,82.74 17.42,82.24 10.02,80.54" fill="#FFFFFF"/>
<path d="M40.27,15.26 C42.69,15.64 44.95,16.61 47.04,17.88 C46.09,16.69 44.80,15.75 43.42,15.08 C39.85,13.39 35.33,13.61 32.11,15.96 C34.79,15.16 37.52,14.82 40.27,15.26" fill="#FFFFFF"/>
<path d="M25.40,13.20 C26.89,13.61 28.15,14.35 29.40,15.31 C29.24,14.90 28.99,14.53 28.72,14.19 C26.75,11.72 22.78,11.13 20.30,13.16 C21.99,12.82 23.73,12.74 25.40,13.20" fill="#FFFFFF"/>
<path d="M59.11,28.69 C59.50,28.47 60.01,28.37 60.47,28.30 C60.96,28.22 61.47,28.18 61.99,28.15 C64.06,28.06 66.16,28.10 68.23,28.21 C66.19,27.70 64.08,27.47 61.97,27.44 C61.43,27.44 60.90,27.47 60.36,27.53 C59.79,27.61 59.24,27.70 58.71,27.98 C57.98,28.38 57.35,28.97 56.96,29.71 C56.83,29.96 56.72,30.22 56.69,30.50 C57.08,30.13 57.47,29.82 57.88,29.51 C58.28,29.21 58.69,28.94 59.11,28.69" fill="#FFFFFF"/>
<path d="M73.07,45.26 C73.00,51.15 73.23,57.04 73.53,62.92 C73.54,63.22 73.54,63.52 73.49,63.81 L73.46,64.03 C73.44,64.11 73.39,64.29 73.38,64.36 C73.35,64.43 73.29,64.60 73.27,64.67 C73.23,64.77 73.18,64.88 73.13,64.98 C72.65,65.96 71.77,66.73 70.73,67.06 C70.47,67.15 70.07,67.25 69.80,67.33 C67.64,67.92 65.33,68.58 63.20,69.26 C65.40,68.87 67.75,68.37 69.94,67.89 C70.10,67.86 70.49,67.77 70.65,67.74 C71.08,67.64 71.50,67.49 71.89,67.29 C72.35,67.03 72.78,66.70 73.13,66.31 C73.30,66.11 73.47,65.89 73.61,65.67 C73.69,65.54 73.81,65.35 73.87,65.21 C73.98,64.98 74.09,64.71 74.15,64.46 L74.22,64.20 L74.27,63.94 C74.33,63.60 74.34,63.22 74.33,62.88 C74.06,57.00 73.71,51.11 73.07,45.26" fill="#FFFFFF"/>
<path d="M17.77,29.05 C16.69,28.34 16.21,27.22 16.48,25.87 C15.98,26.32 15.72,27.03 15.76,27.71 C15.79,28.64 16.38,29.49 17.14,30.00 C17.86,30.47 18.75,30.58 19.52,30.38 C20.29,30.19 20.96,29.72 21.34,29.09 C20.21,29.54 18.80,29.72 17.77,29.05" fill="#FFFFFF"/>
<path d="M25.32,26.89 C24.77,26.51 24.51,26.03 24.55,25.29 C23.73,25.90 24.02,27.12 24.83,27.63 C25.62,28.16 26.80,27.87 27.17,27.03 C26.49,27.19 25.86,27.22 25.32,26.89" fill="#FFFFFF"/>
<path d="M13.41,22.04 C13.15,22.11 12.98,22.39 13.00,22.68 C13.01,22.97 13.19,23.24 13.42,23.40 C13.90,23.73 14.65,23.50 14.72,22.91 C14.34,22.87 14.14,22.81 13.92,22.65 C13.66,22.49 13.53,22.45 13.41,22.04" fill="#FFFFFF"/>
<path d="M36.58,24.14 C36.45,24.01 36.33,23.82 36.27,23.63 C36.20,23.37 36.23,23.13 36.25,22.84 C35.39,23.41 35.57,24.68 36.45,25.15 C37.04,25.48 37.83,25.39 38.35,24.98 C38.52,24.85 38.66,24.68 38.74,24.49 C38.54,24.53 38.36,24.56 38.18,24.57 C37.61,24.60 37.00,24.56 36.58,24.14" fill="#FFFFFF"/>
<path d="M12.42,17.01 C12.93,17.29 13.72,17.05 13.83,16.45 C13.41,16.42 13.05,16.35 12.71,16.14 C12.66,16.12 12.58,16.05 12.54,15.99 C12.42,15.85 12.42,15.69 12.38,15.49 C11.69,15.75 11.82,16.72 12.42,17.01" fill="#FFFFFF"/>
<path d="M41.74,20.92 C41.62,20.82 41.62,20.67 41.56,20.50 C40.92,20.69 41.02,21.60 41.57,21.86 C42.03,22.11 42.75,21.88 42.81,21.32 C42.45,21.28 42.19,21.17 41.90,21.02 C41.86,21.01 41.78,20.96 41.74,20.92" fill="#FFFFFF"/>
<path d="M48.68,29.31 C48.00,28.86 47.69,28.21 47.80,27.34 C47.15,27.85 47.14,28.85 47.60,29.49 C48.41,30.69 50.23,30.66 50.92,29.41 C50.13,29.65 49.34,29.73 48.68,29.31" fill="#FFFFFF"/>
</svg>