<svg xmlns="http://www.w3.org/2000/svg" viewBox="0 0 96.9 96.8">
<path d="M48.44,29.15 L26.05,6.76 L70.82,6.76 L48.44,29.15 M91.53,72.23 L81.66,62.39 L81.66,62.38 L68.14,48.85 L83.88,33.58 C84.13,33.33 84.21,32.96 84.09,32.63 L73.78,5.57 C73.73,5.44 73.65,5.33 73.55,5.24 C73.52,5.22 73.50,5.20 73.47,5.18 C73.39,5.13 73.30,5.08 73.21,5.05 C73.18,5.05 73.17,5.03 73.14,5.02 C73.12,5.02 73.09,5.02 73.07,5.02 C73.03,5.01 72.99,5.01 72.96,5.00 L23.92,5.00 C23.53,5.00 23.19,5.26 23.09,5.64 L12.05,33.35 C11.91,33.69 12.00,34.07 12.27,34.32 L28.22,49.36 L15.21,62.37 L5.34,72.23 C5.00,72.58 5.00,73.14 5.35,73.48 C5.69,73.83 6.25,73.83 6.60,73.48 L15.84,64.24 L18.00,66.41 L8.76,75.65 C8.41,75.99 8.40,76.55 8.74,76.90 C9.08,77.26 9.64,77.27 9.99,76.93 C10.00,76.92 10.01,76.91 10.02,76.90 L19.26,67.66 L21.65,70.05 L12.41,79.29 C12.06,79.63 12.05,80.19 12.39,80.54 C12.72,80.90 13.28,80.91 13.64,80.57 C13.64,80.56 13.65,80.55 13.66,80.54 L22.90,71.30 L25.48,73.88 L16.23,83.13 C15.88,83.46 15.87,84.03 16.21,84.38 C16.55,84.73 17.11,84.74 17.46,84.40 C17.47,84.39 17.48,84.38 17.48,84.38 L26.73,75.13 L29.12,77.53 L19.88,86.77 C19.53,87.11 19.53,87.67 19.88,88.02 C20.05,88.19 20.27,88.28 20.51,88.28 C20.74,88.28 20.96,88.19 21.13,88.02 L30.37,78.78 L32.54,80.95 L23.30,90.19 C22.95,90.54 22.95,91.10 23.30,91.44 C23.64,91.79 24.20,91.79 24.55,91.44 L34.41,81.58 L48.24,68.16 L62.45,81.55 L62.46,81.57 L72.33,91.44 C72.67,91.78 73.23,91.78 73.58,91.44 C73.92,91.09 73.92,90.53 73.58,90.19 L64.34,80.94 L66.84,78.44 L76.09,87.67 C76.43,88.02 76.99,88.03 77.34,87.69 C77.69,87.35 77.70,86.79 77.36,86.44 C77.35,86.43 77.34,86.43 77.34,86.42 L68.09,77.19 L70.27,75.01 L79.52,84.23 C79.87,84.57 80.43,84.57 80.77,84.21 C81.10,83.87 81.10,83.33 80.77,82.98 L71.52,73.76 L73.85,71.43 L83.08,80.68 C83.43,81.02 83.99,81.01 84.33,80.66 C84.66,80.31 84.66,79.77 84.33,79.43 L75.10,70.18 L77.28,68.00 L86.51,77.25 C86.85,77.60 87.41,77.61 87.76,77.27 C88.11,76.93 88.12,76.37 87.78,76.02 C87.78,76.01 87.77,76.00 87.76,76.00 L78.53,66.75 L81.03,64.25 L90.28,73.47 C90.62,73.82 91.18,73.82 91.53,73.47 C91.88,73.13 91.88,72.57 91.53,72.22 L91.53,72.23" fill="#FFFFFF"/>
</svg>