<svg xmlns="http://www.w3.org/2000/svg" viewBox="0 0 115.5 110.5">
<path d="M76.22,59.32 C76.20,59.33 76.18,59.32 76.14,59.33 L69.29,60.33 C68.72,60.42 68.44,61.09 68.79,61.55 L72.97,67.09 C75.13,69.98 71.51,73.63 68.60,71.47 L63.04,67.34 C62.57,67.00 61.91,67.28 61.82,67.85 L60.86,74.72 C60.36,78.29 55.21,78.31 54.68,74.74 L53.68,67.88 C53.59,67.30 52.92,67.03 52.46,67.38 L46.92,71.56 C44.03,73.72 40.39,70.09 42.53,67.20 L46.67,61.63 C47.02,61.16 46.74,60.50 46.16,60.42 L39.29,59.45 C35.73,58.96 35.70,53.82 39.25,53.28 C39.25,53.28 39.26,53.28 39.27,53.28 L46.13,52.26 C46.70,52.18 46.98,51.51 46.63,51.04 L42.46,45.50 C40.29,42.65 43.89,39.00 46.78,41.10 L46.80,41.12 L52.38,45.26 C52.85,45.61 53.51,45.33 53.60,44.75 L54.56,37.88 C55.05,34.31 60.21,34.30 60.74,37.86 L61.74,44.72 C61.83,45.30 62.50,45.57 62.96,45.22 L68.50,41.05 C71.37,38.88 75.00,42.46 72.92,45.35 C72.91,45.37 72.90,45.39 72.89,45.40 L68.75,50.96 C68.41,51.43 68.68,52.10 69.26,52.18 L76.13,53.14 C79.67,53.66 79.71,58.71 76.22,59.32 M85.08,29.31 L78.78,29.43 C77.86,29.45 77.05,28.86 76.78,27.98 L74.87,21.98 C69.48,5.00 45.40,5.15 40.23,22.20 L38.40,28.24 C38.13,29.11 37.33,29.70 36.40,29.71 L30.11,29.65 C12.30,29.54 5.00,52.49 19.61,62.66 L24.78,66.27 C25.53,66.79 25.85,67.75 25.56,68.62 L23.58,74.59 C17.95,91.50 37.52,105.52 51.72,94.77 L56.75,90.97 C57.48,90.42 58.48,90.42 59.22,90.96 L64.29,94.70 C78.62,105.27 98.02,90.99 92.19,74.16 L90.13,68.20 C89.83,67.34 90.13,66.38 90.87,65.84 L95.99,62.18 C110.48,51.81 102.89,28.95 85.08,29.31" fill="#FFFFFF"/>
</svg>