<svg xmlns="http://www.w3.org/2000/svg" viewBox="0 0 121.6 122.5">
<path d="M95.69,47.13 L95.69,47.30 L95.51,47.09 C95.57,47.10 95.64,47.11 95.69,47.13" fill="#FFFFFF"/>
<path d="M85.13,58.41 C80.40,57.00 75.73,55.36 71.10,53.49 C74.85,52.66 78.14,51.71 80.97,50.63 C82.31,50.66 83.64,50.82 84.94,51.11 C85.00,51.12 85.07,51.13 85.13,51.15 L85.13,58.41 M109.75,65.86 C109.48,65.60 109.20,65.34 108.90,65.06 C108.65,64.83 108.49,64.68 108.23,64.47 C106.37,62.87 104.33,61.58 102.16,60.61 L99.80,59.45 L93.81,56.34 C93.55,56.06 93.30,55.75 93.06,55.45 C92.41,54.65 91.85,53.79 91.36,52.89 C91.24,52.74 91.12,52.59 91.00,52.44 C89.83,49.39 88.22,46.60 86.17,44.06 C81.68,40.60 76.83,37.82 71.63,35.75 C69.31,34.74 66.89,34.04 64.35,33.67 C63.59,29.82 62.73,26.01 61.75,22.24 C61.17,21.41 60.52,20.35 59.97,19.03 C59.59,18.13 59.33,17.27 59.15,16.52 C59.01,15.94 58.86,15.36 58.71,14.78 L58.11,14.78 C58.06,14.65 58.00,14.52 57.94,14.39 C58.77,17.05 59.54,19.99 60.18,23.20 C61.01,27.32 61.48,31.13 61.71,34.54 C57.01,36.88 52.18,38.96 47.21,40.75 C45.01,36.83 44.56,32.68 45.90,28.29 C48.38,21.60 51.41,15.20 54.99,9.07 C56.15,10.74 57.13,12.52 57.94,14.38 C58.18,14.46 58.42,14.54 58.66,14.61 C57.87,11.60 57.00,8.59 56.04,5.62 C55.77,5.09 55.43,5.00 54.99,5.35 C48.65,12.41 43.54,20.29 39.67,28.99 C38.97,30.67 38.54,32.40 38.37,34.19 C38.12,35.52 37.43,36.57 36.29,37.30 C31.82,40.22 27.61,43.54 23.77,47.24 C20.46,50.44 17.42,53.91 14.71,57.61 C11.75,61.65 9.34,66.01 6.94,70.34 C6.65,70.85 6.37,71.36 6.23,71.92 C6.11,72.41 6.06,73.20 6.47,73.54 C9.10,71.63 10.39,68.41 13.05,66.53 C10.15,71.34 7.65,76.33 5.59,81.52 C5.47,81.25 5.38,80.97 5.27,80.70 C5.18,80.76 5.09,80.81 5.00,80.86 C9.46,89.08 15.52,96.30 22.77,102.11 C23.16,101.04 23.60,99.99 24.09,98.94 C25.78,94.66 28.12,90.85 31.10,87.51 C33.10,83.63 35.47,80.01 38.22,76.66 C39.86,75.73 41.51,74.81 43.15,73.86 C43.50,78.16 44.77,82.19 46.94,85.95 C47.39,84.73 47.81,83.51 48.24,82.32 C52.20,74.25 57.57,67.14 64.35,61.02 C65.19,60.53 66.05,60.10 66.95,59.71 C71.05,59.32 75.08,59.36 79.03,59.85 C79.33,59.89 79.62,59.93 79.94,59.97 C85.68,61.28 91.39,62.76 97.07,64.39 C99.63,64.93 102.20,65.30 104.79,65.51 C104.99,65.68 105.21,65.85 105.40,66.02 C105.61,66.21 105.75,66.33 106.00,66.55 C106.99,67.46 107.73,68.22 108.26,68.83 C109.48,70.19 109.75,70.88 109.80,71.07 C109.80,71.11 109.78,71.17 109.76,71.21 C109.75,71.23 109.75,71.24 109.74,71.27 C109.20,72.75 107.11,74.42 105.70,75.28 C99.37,76.18 92.97,76.09 86.67,75.00 L86.65,74.83 C82.23,74.95 75.41,79.69 71.36,84.19 C66.59,89.51 69.40,99.50 69.74,100.67 L70.06,101.67 L70.85,103.77 C69.00,107.90 67.41,112.11 66.10,116.41 L60.43,116.41 C56.75,116.41 53.15,116.07 49.64,115.43 C55.04,116.77 60.69,117.48 66.50,117.48 L81.05,117.48 C80.37,116.61 79.69,115.74 79.02,114.87 L74.19,102.05 L73.90,101.13 C73.18,98.73 71.93,91.82 74.59,88.84 C78.20,84.83 83.22,81.66 85.97,81.04 C92.85,82.23 99.84,82.30 106.75,81.28 L107.48,81.02 C108.01,80.73 112.62,78.07 113.88,74.38 C113.95,74.13 114.02,73.90 114.08,73.63 C114.20,73.13 114.20,72.60 114.08,72.04 C116.61,67.83 115.17,65.77 109.75,65.86" fill="#FFFFFF"/>
<path d="M75.20,18.61 C73.69,23.69 73.08,28.89 73.38,34.19 C71.07,33.18 68.65,32.48 66.10,32.11 C65.34,28.26 64.48,24.46 63.51,20.68 C66.93,16.05 70.75,11.71 74.94,7.69 C75.54,11.32 75.63,14.95 75.20,18.61" fill="#FFFFFF"/>
</svg>