<svg xmlns="http://www.w3.org/2000/svg" viewBox="0 0 59.1 115.9">
<path d="M46.66,28.10 C51.01,32.82 53.56,39.28 53.07,46.26 C53.04,46.73 52.94,47.20 52.81,47.65 L36.37,104.09 C34.38,110.94 24.68,110.94 22.68,104.09 C17.21,85.28 11.73,66.47 6.25,47.65 C6.12,47.20 6.02,46.73 5.99,46.26 C5.49,39.28 8.05,32.82 12.39,28.10 C10.34,24.74 8.29,21.38 6.25,18.02 C6.12,17.80 6.02,17.58 5.99,17.35 C5.00,10.68 16.21,5.00 29.53,5.00 C42.85,5.00 54.06,10.68 53.07,17.35 C53.04,17.58 52.94,17.80 52.81,18.02 L46.66,28.10" fill="#FFFFFF"/>
</svg>