<svg xmlns="http://www.w3.org/2000/svg" viewBox="0 0 128.3 91.0">
<path d="M65.78,58.99 C65.61,60.05 65.26,61.04 64.74,61.95 C64.63,62.15 64.51,62.35 64.37,62.54 C64.24,62.73 64.10,62.92 63.95,63.10 C63.73,63.37 63.49,63.63 63.23,63.88 L63.22,63.89 C62.77,64.33 62.25,64.72 61.68,65.06 L60.24,65.93 L61.12,67.36 C62.20,69.11 62.60,71.10 62.28,73.14 C61.94,75.41 60.73,77.40 58.88,78.76 C57.03,80.12 54.77,80.67 52.50,80.33 C50.12,79.96 48.00,78.60 46.67,76.60 L45.22,74.43 L43.85,76.66 C41.21,81.00 36.26,83.30 31.25,82.54 C25.75,81.69 21.52,77.43 20.73,71.93 L20.50,70.30 L18.86,70.52 C18.08,70.62 17.28,70.61 16.48,70.49 C11.80,69.77 8.57,65.38 9.29,60.70 C10.01,56.02 14.40,52.80 19.08,53.52 C20.09,53.68 21.04,54.00 21.92,54.48 L24.11,55.67 L24.38,53.19 C24.38,53.11 24.40,53.04 24.41,52.97 C24.71,51.00 25.45,49.19 26.60,47.58 C29.36,43.71 33.99,41.76 38.69,42.48 C41.39,42.89 43.82,44.14 45.73,46.07 C47.04,47.42 48.05,49.04 48.65,50.80 L49.50,53.26 L51.38,51.47 C53.32,49.62 55.94,48.80 58.59,49.20 C58.81,49.24 59.03,49.28 59.25,49.33 C59.46,49.38 59.68,49.44 59.89,49.50 C60.10,49.57 60.30,49.65 60.51,49.73 C60.61,49.77 60.71,49.81 60.81,49.85 C61.01,49.95 61.21,50.04 61.40,50.15 C61.59,50.25 61.78,50.36 61.97,50.49 C62.24,50.66 62.51,50.86 62.77,51.07 L62.77,51.08 C62.94,51.22 63.10,51.37 63.26,51.52 L63.27,51.53 C63.32,51.58 63.38,51.64 63.43,51.69 C63.60,51.86 63.74,52.02 63.88,52.18 C65.46,54.07 66.15,56.55 65.78,58.99 M69.19,56.99 C69.18,56.87 69.18,56.76 69.16,56.65 C69.15,56.43 69.12,56.21 69.09,55.99 C69.07,55.88 69.06,55.78 69.04,55.67 C69.02,55.54 68.99,55.42 68.96,55.30 C68.94,55.14 68.90,54.99 68.86,54.84 C68.84,54.72 68.81,54.61 68.77,54.49 C68.74,54.36 68.70,54.24 68.66,54.12 C68.63,54.01 68.60,53.90 68.55,53.80 C68.52,53.69 68.48,53.58 68.44,53.48 C68.38,53.31 68.31,53.14 68.24,52.98 C68.19,52.85 68.13,52.72 68.07,52.59 C67.73,51.87 67.32,51.18 66.83,50.54 C66.71,50.37 66.58,50.21 66.44,50.05 C66.20,49.75 65.92,49.46 65.59,49.13 C65.22,48.78 64.84,48.45 64.44,48.14 L64.43,48.14 C63.73,47.62 62.97,47.17 62.18,46.81 C62.06,46.76 61.93,46.71 61.81,46.65 C61.62,46.58 61.43,46.51 61.23,46.44 C61.00,46.36 60.77,46.29 60.54,46.22 C60.34,46.16 60.15,46.11 59.96,46.07 C59.83,46.04 59.69,46.01 59.55,45.99 C59.40,45.96 59.25,45.93 59.10,45.90 C58.79,45.86 58.48,45.82 58.18,45.80 C57.83,45.77 57.49,45.76 57.14,45.77 C57.12,45.77 57.11,45.77 57.10,45.77 C56.95,45.77 56.81,45.77 56.67,45.78 C56.65,45.78 56.63,45.78 56.61,45.79 C56.47,45.79 56.32,45.80 56.18,45.81 C56.14,45.82 56.11,45.82 56.08,45.82 C55.97,45.84 55.85,45.85 55.74,45.87 C55.70,45.87 55.66,45.88 55.62,45.88 C55.51,45.90 55.40,45.91 55.29,45.93 C55.26,45.94 55.22,45.94 55.18,45.95 C55.16,45.95 55.12,45.96 55.09,45.97 C54.80,46.02 54.51,46.09 54.22,46.16 C54.17,46.18 54.11,46.20 54.05,46.21 C53.90,46.25 53.75,46.30 53.60,46.34 C53.46,46.39 53.30,46.44 53.16,46.50 C52.37,46.79 51.62,47.16 50.91,47.62 C50.82,47.43 50.72,47.25 50.62,47.07 C50.52,46.90 50.42,46.73 50.32,46.57 C50.22,46.40 50.11,46.23 50.00,46.07 C49.90,45.92 49.80,45.78 49.70,45.64 C49.67,45.59 49.63,45.54 49.60,45.50 C49.51,45.37 49.41,45.23 49.30,45.10 C49.30,45.09 49.29,45.09 49.29,45.09 C49.17,44.93 49.05,44.79 48.92,44.64 C48.90,44.60 48.87,44.57 48.84,44.54 C48.60,44.26 48.36,43.99 48.10,43.74 C47.95,43.58 47.80,43.43 47.64,43.28 C47.54,43.19 47.44,43.10 47.34,43.01 C47.22,42.90 47.10,42.80 46.98,42.70 C46.85,42.59 46.72,42.48 46.59,42.38 C46.53,42.34 46.48,42.29 46.42,42.25 C46.37,42.21 46.32,42.17 46.26,42.13 C46.21,42.09 46.16,42.05 46.10,42.01 C45.99,41.93 45.88,41.85 45.77,41.78 C45.73,41.75 45.69,41.72 45.65,41.69 C45.47,41.58 45.30,41.46 45.13,41.36 C45.13,41.35 45.12,41.35 45.12,41.35 C44.94,41.24 44.76,41.14 44.58,41.04 C44.41,40.94 44.23,40.84 44.05,40.75 C43.65,40.54 43.25,40.36 42.83,40.19 C42.65,40.12 42.47,40.04 42.29,39.98 C41.94,39.85 41.60,39.73 41.25,39.63 C40.58,39.44 39.90,39.29 39.20,39.18 C34.56,38.47 29.98,39.82 26.53,42.76 C26.38,42.88 26.24,43.01 26.10,43.14 C26.09,43.15 26.09,43.15 26.08,43.15 C25.94,43.28 25.81,43.41 25.67,43.55 C25.64,43.57 25.62,43.60 25.59,43.63 C25.46,43.75 25.35,43.88 25.23,44.00 C25.09,44.15 24.95,44.31 24.81,44.47 C24.49,44.84 24.18,45.23 23.89,45.64 C23.52,46.15 23.19,46.68 22.89,47.22 C22.29,48.31 21.82,49.46 21.48,50.67 C20.87,50.47 20.24,50.32 19.59,50.22 C13.08,49.23 6.99,53.70 5.99,60.20 C5.00,66.70 9.48,72.79 15.98,73.79 C16.56,73.88 17.14,73.93 17.73,73.93 C19.24,80.15 24.30,84.85 30.74,85.83 C31.55,85.96 32.36,86.02 33.16,86.02 C37.88,86.02 42.36,83.91 45.38,80.26 C47.15,82.04 49.47,83.24 51.99,83.62 C55.14,84.10 58.29,83.34 60.85,81.45 C63.42,79.56 65.10,76.79 65.58,73.64 C65.89,71.62 65.67,69.57 64.97,67.68 C64.89,67.46 64.80,67.24 64.70,67.02 C65.00,66.78 65.28,66.54 65.54,66.28 C66.01,65.83 66.45,65.33 66.84,64.82 C66.94,64.68 67.05,64.54 67.14,64.40 C67.23,64.27 67.31,64.15 67.39,64.02 C67.65,63.61 67.88,63.19 68.09,62.75 C68.15,62.60 68.22,62.45 68.28,62.30 C68.47,61.86 68.63,61.40 68.76,60.93 C68.81,60.78 68.85,60.62 68.88,60.46 C68.92,60.30 68.96,60.14 68.99,59.98 C69.02,59.82 69.05,59.66 69.07,59.49 C69.19,58.73 69.23,57.97 69.20,57.21 C69.20,57.14 69.20,57.06 69.19,56.99" fill="#FFFFFF"/>
<path d="M46.27,42.13 C46.21,42.09 46.16,42.05 46.10,42.01 C46.16,42.05 46.21,42.09 46.26,42.13 C46.32,42.17 46.37,42.21 46.42,42.25 C46.37,42.21 46.32,42.16 46.27,42.13 C46.21,42.09 46.16,42.05 46.10,42.01 C46.16,42.05 46.21,42.09 46.26,42.13 C46.32,42.17 46.37,42.21 46.42,42.25 C46.37,42.21 46.32,42.16 46.27,42.13 M101.66,24.50 L94.66,35.26 C94.60,35.24 94.53,35.23 94.47,35.21 C93.97,35.08 93.46,34.98 92.95,34.90 C89.39,34.36 85.81,35.03 82.71,36.79 C82.27,37.04 81.84,37.32 81.42,37.61 C80.88,37.99 80.37,38.40 79.88,38.84 C79.75,38.96 79.61,39.09 79.48,39.22 C79.38,39.31 79.28,39.40 79.19,39.50 C79.04,39.65 78.90,39.80 78.76,39.96 C78.56,40.17 78.37,40.39 78.19,40.62 C78.11,40.72 78.03,40.82 77.95,40.92 C77.78,41.14 77.62,41.36 77.47,41.58 C77.39,41.70 77.31,41.82 77.24,41.94 C77.09,42.16 76.95,42.38 76.82,42.61 C76.70,42.81 76.59,43.01 76.49,43.21 C76.30,43.57 76.13,43.94 75.97,44.31 C75.92,44.42 75.88,44.53 75.83,44.64 C75.81,44.70 75.78,44.78 75.75,44.84 C75.70,44.99 75.64,45.14 75.59,45.29 C75.46,45.66 75.34,46.02 75.24,46.40 C75.09,46.34 74.93,46.30 74.78,46.25 C74.46,46.17 74.14,46.09 73.82,46.03 C73.66,46.00 73.50,45.97 73.34,45.94 C72.39,45.80 71.43,45.77 70.49,45.84 C70.39,45.85 70.29,45.86 70.19,45.87 C70.08,45.89 69.96,45.90 69.85,45.92 C69.82,45.92 69.79,45.92 69.77,45.93 C69.67,45.94 69.57,45.96 69.47,45.98 C69.36,46.00 69.25,46.01 69.15,46.04 C68.84,46.10 68.53,46.17 68.23,46.26 C68.11,46.30 67.99,46.33 67.88,46.37 C67.68,46.43 67.48,46.51 67.28,46.58 C67.15,46.63 67.02,46.68 66.90,46.73 C66.47,46.91 66.04,47.12 65.63,47.36 C65.50,47.44 65.36,47.52 65.22,47.61 C65.10,47.69 64.97,47.77 64.84,47.86 C64.70,47.95 64.57,48.04 64.44,48.14 L64.43,48.14 C63.73,47.62 62.98,47.17 62.18,46.81 C62.06,46.76 61.93,46.71 61.81,46.65 C61.62,46.58 61.43,46.51 61.23,46.44 C61.00,46.36 60.77,46.29 60.54,46.22 C60.34,46.16 60.15,46.11 59.96,46.07 C59.83,46.04 59.69,46.01 59.55,45.99 C59.40,45.96 59.25,45.93 59.10,45.90 C58.79,45.86 58.48,45.82 58.18,45.80 C57.87,45.77 57.56,45.76 57.26,45.76 C57.22,45.76 57.18,45.76 57.14,45.77 C57.12,45.77 57.11,45.77 57.10,45.77 C56.95,45.77 56.81,45.77 56.67,45.78 C56.65,45.78 56.63,45.78 56.61,45.79 C56.49,45.79 56.37,45.80 56.25,45.80 C56.22,45.80 56.20,45.81 56.18,45.81 C56.14,45.82 56.11,45.82 56.08,45.82 C55.97,45.84 55.85,45.85 55.74,45.87 C55.70,45.87 55.66,45.88 55.62,45.88 C55.51,45.90 55.40,45.91 55.29,45.93 C55.26,45.94 55.22,45.94 55.18,45.95 C55.16,45.95 55.12,45.96 55.09,45.97 C54.80,46.02 54.51,46.09 54.22,46.16 C54.17,46.18 54.11,46.20 54.05,46.21 C53.90,46.25 53.75,46.30 53.60,46.34 C53.46,46.39 53.30,46.44 53.16,46.50 C52.37,46.79 51.62,47.16 50.91,47.62 C50.82,47.43 50.72,47.25 50.62,47.07 C50.52,46.90 50.42,46.73 50.32,46.57 C50.22,46.40 50.11,46.23 50.00,46.07 C49.90,45.92 49.80,45.78 49.70,45.64 C49.67,45.59 49.63,45.54 49.60,45.50 C49.51,45.37 49.41,45.23 49.30,45.10 C49.30,45.09 49.29,45.09 49.29,45.09 C49.17,44.93 49.05,44.79 48.92,44.64 C48.90,44.60 48.87,44.57 48.84,44.54 C48.61,44.26 48.36,43.99 48.10,43.74 C47.95,43.58 47.80,43.43 47.64,43.28 C47.54,43.19 47.44,43.10 47.34,43.01 C47.22,42.90 47.10,42.80 46.98,42.70 C46.85,42.59 46.72,42.48 46.59,42.38 C46.53,42.34 46.48,42.29 46.42,42.25 C46.37,42.21 46.32,42.16 46.27,42.13 C46.21,42.09 46.16,42.05 46.10,42.01 C45.99,41.93 45.88,41.85 45.77,41.78 C45.73,41.75 45.69,41.72 45.65,41.69 C45.47,41.58 45.30,41.46 45.13,41.36 C45.13,41.35 45.12,41.35 45.12,41.35 C44.94,41.24 44.76,41.14 44.58,41.04 C44.41,40.94 44.23,40.84 44.05,40.75 C43.65,40.54 43.25,40.36 42.84,40.19 C42.65,40.12 42.47,40.04 42.29,39.98 C41.94,39.85 41.60,39.73 41.25,39.63 C41.47,39.38 41.66,39.09 41.82,38.78 C42.46,37.52 42.44,36.02 41.77,34.78 L34.74,21.64 C34.71,21.59 34.62,21.40 34.80,21.21 C34.99,21.01 35.17,21.10 35.23,21.12 L48.75,27.40 C50.03,27.99 51.53,27.91 52.75,27.20 C53.97,26.49 54.76,25.22 54.87,23.82 L56.05,8.97 C56.06,8.90 56.07,8.69 56.34,8.63 C56.60,8.56 56.71,8.74 56.74,8.79 L64.73,21.38 C65.49,22.57 66.78,23.32 68.20,23.38 C69.61,23.43 70.96,22.80 71.80,21.68 L80.84,9.82 C80.88,9.77 81.00,9.60 81.26,9.69 C81.51,9.78 81.51,9.97 81.51,10.05 L81.43,24.95 C81.42,26.36 82.10,27.69 83.25,28.50 C84.41,29.32 85.89,29.51 87.22,29.03 L101.23,23.94 C101.29,23.92 101.48,23.84 101.64,24.05 C101.81,24.27 101.70,24.44 101.66,24.50 M26.10,43.14 C26.09,43.15 26.09,43.15 26.08,43.16 C25.94,43.28 25.81,43.41 25.67,43.55 C25.64,43.57 25.62,43.60 25.59,43.63 C25.46,43.75 25.35,43.88 25.23,44.00 C25.09,44.15 24.95,44.31 24.81,44.47 L23.66,43.83 C23.61,43.79 23.43,43.70 23.48,43.44 C23.53,43.17 23.73,43.14 23.80,43.13 L26.53,42.76 C26.38,42.88 26.24,43.01 26.10,43.14 M104.25,21.97 C103.24,20.70 101.60,20.25 100.08,20.80 L86.08,25.90 C85.65,26.06 85.30,25.87 85.18,25.78 C85.05,25.69 84.76,25.44 84.76,24.97 L84.84,10.07 C84.86,8.45 83.87,7.06 82.33,6.53 C80.79,6.01 79.17,6.51 78.18,7.80 L69.15,19.66 C68.88,20.01 68.54,20.06 68.34,20.05 C68.18,20.04 67.79,19.98 67.54,19.59 L59.56,7.00 C58.69,5.63 57.11,5.00 55.54,5.39 C53.96,5.78 52.86,7.08 52.73,8.70 L51.54,23.56 C51.51,24.00 51.23,24.23 51.06,24.33 C50.93,24.40 50.57,24.56 50.15,24.37 L36.63,18.10 C35.16,17.42 33.49,17.74 32.38,18.92 C31.26,20.10 31.04,21.79 31.80,23.22 L38.84,36.36 C39.05,36.75 38.93,37.10 38.85,37.27 C38.78,37.40 38.57,37.73 38.11,37.80 L23.34,39.83 C21.73,40.05 20.50,41.23 20.20,42.82 C19.90,44.42 20.63,45.96 22.04,46.74 L22.89,47.22 L25.73,48.80 L26.60,47.58 C29.36,43.71 33.99,41.76 38.69,42.48 C41.39,42.89 43.82,44.14 45.73,46.07 C47.04,47.42 48.05,49.04 48.65,50.80 L49.50,53.26 L51.38,51.47 C53.32,49.62 55.94,48.80 58.59,49.20 C58.81,49.24 59.03,49.28 59.25,49.33 C59.46,49.38 59.68,49.44 59.89,49.50 C60.10,49.57 60.30,49.65 60.51,49.73 C60.61,49.77 60.71,49.81 60.81,49.85 C61.01,49.95 61.21,50.04 61.40,50.15 C61.59,50.25 61.78,50.36 61.97,50.49 C62.24,50.66 62.51,50.86 62.77,51.07 L62.77,51.08 C62.94,51.22 63.10,51.37 63.27,51.53 C63.32,51.58 63.38,51.64 63.43,51.69 L64.42,52.64 L65.58,51.53 C65.97,51.16 66.39,50.83 66.83,50.54 C66.90,50.49 66.98,50.45 67.05,50.40 C67.42,50.17 67.80,49.98 68.20,49.81 C68.29,49.77 68.39,49.73 68.48,49.70 C68.58,49.66 68.67,49.62 68.77,49.59 C69.02,49.51 69.27,49.44 69.52,49.37 C69.63,49.35 69.75,49.33 69.86,49.30 C69.99,49.27 70.13,49.25 70.27,49.23 C70.37,49.22 70.47,49.20 70.57,49.19 C70.67,49.18 70.77,49.17 70.86,49.17 C70.95,49.15 71.04,49.15 71.13,49.15 C71.26,49.14 71.38,49.14 71.51,49.14 C71.95,49.14 72.39,49.17 72.83,49.24 C73.83,49.39 74.79,49.72 75.68,50.20 L77.87,51.39 L78.13,48.90 C78.14,48.84 78.15,48.77 78.16,48.69 C78.62,45.70 80.08,43.07 82.33,41.12 C82.65,40.85 82.98,40.59 83.33,40.34 C83.33,40.34 83.34,40.34 83.34,40.34 C83.35,40.33 83.37,40.32 83.38,40.31 C86.03,38.46 89.25,37.71 92.44,38.20 C92.81,38.26 93.17,38.33 93.53,38.42 C93.96,38.52 94.39,38.65 94.80,38.80 L96.04,39.25 L97.84,36.49 L104.46,26.32 L104.47,26.31 C105.35,24.95 105.26,23.24 104.25,21.97 M46.27,42.13 C46.21,42.09 46.16,42.05 46.10,42.01 C46.16,42.05 46.21,42.09 46.26,42.13 C46.32,42.17 46.37,42.21 46.42,42.25 C46.37,42.21 46.32,42.16 46.27,42.13" fill="#FFFFFF"/>
<path d="M26.53,42.76 C26.38,42.88 26.24,43.01 26.10,43.14 C26.09,43.15 26.09,43.15 26.08,43.15 C25.94,43.28 25.81,43.41 25.67,43.55 C25.64,43.58 25.62,43.60 25.59,43.63 C25.46,43.75 25.35,43.88 25.23,44.00 C25.09,44.15 24.95,44.31 24.81,44.47 L23.66,43.83 C23.61,43.79 23.43,43.70 23.48,43.44 C23.53,43.17 23.73,43.14 23.80,43.13 L26.53,42.76" fill="#FFFFFF"/>
<path d="M101.66,24.50 L94.66,35.26 C94.60,35.24 94.53,35.23 94.47,35.21 C93.97,35.08 93.46,34.98 92.95,34.90 C89.39,34.35 85.81,35.03 82.72,36.79 C79.30,33.03 74.71,30.55 69.64,29.77 C59.88,28.28 50.42,33.40 46.27,42.13 C46.21,42.09 46.16,42.05 46.10,42.01 C45.99,41.93 45.89,41.85 45.78,41.78 C45.73,41.75 45.69,41.72 45.65,41.69 C45.48,41.58 45.30,41.46 45.13,41.36 C45.13,41.35 45.12,41.35 45.12,41.35 C44.94,41.24 44.76,41.13 44.58,41.03 C44.41,40.93 44.23,40.84 44.06,40.75 C43.66,40.54 43.25,40.36 42.84,40.19 C42.65,40.12 42.47,40.04 42.29,39.98 C41.94,39.85 41.60,39.73 41.25,39.63 C41.47,39.38 41.66,39.09 41.82,38.78 C42.46,37.52 42.45,36.02 41.77,34.78 L34.74,21.64 C34.71,21.59 34.62,21.40 34.80,21.21 C34.99,21.01 35.17,21.10 35.23,21.12 L48.75,27.40 C50.04,27.99 51.53,27.91 52.75,27.20 C53.97,26.49 54.76,25.22 54.87,23.82 L56.05,8.97 C56.06,8.90 56.07,8.69 56.34,8.63 C56.60,8.56 56.71,8.74 56.74,8.79 L64.73,21.38 C65.49,22.57 66.78,23.32 68.20,23.38 C69.61,23.43 70.96,22.80 71.80,21.68 L80.84,9.82 C80.88,9.76 81.00,9.60 81.26,9.69 C81.51,9.78 81.51,9.97 81.51,10.05 L81.43,24.95 C81.42,26.36 82.10,27.69 83.25,28.50 C84.41,29.32 85.89,29.51 87.22,29.03 L101.23,23.94 C101.29,23.92 101.48,23.84 101.64,24.05 C101.81,24.27 101.70,24.44 101.66,24.50" fill="#FFFFFF"/>
<path d="M79.48,39.21 C79.39,39.31 79.29,39.40 79.19,39.50 C79.04,39.65 78.90,39.80 78.76,39.96 C78.56,40.17 78.38,40.39 78.19,40.62 C78.11,40.72 78.03,40.82 77.96,40.92 C77.78,41.13 77.62,41.36 77.47,41.58 C77.39,41.70 77.31,41.82 77.24,41.94 C77.09,42.16 76.95,42.38 76.82,42.61 C76.70,42.81 76.59,43.01 76.49,43.21 C76.30,43.57 76.13,43.94 75.97,44.31 C75.92,44.42 75.88,44.53 75.84,44.64 C75.81,44.70 75.78,44.77 75.75,44.84 C75.70,44.99 75.64,45.14 75.59,45.29 C75.46,45.66 75.34,46.02 75.24,46.39 C75.09,46.34 74.94,46.30 74.78,46.25 C74.46,46.16 74.14,46.09 73.82,46.03 C73.66,45.99 73.50,45.97 73.34,45.94 C72.39,45.79 71.43,45.77 70.49,45.84 C70.39,45.85 70.29,45.86 70.19,45.87 C70.08,45.88 69.97,45.90 69.85,45.92 C69.82,45.92 69.79,45.92 69.77,45.93 C69.67,45.94 69.57,45.96 69.47,45.98 C69.37,45.99 69.26,46.01 69.15,46.04 C68.84,46.10 68.53,46.17 68.23,46.26 C68.11,46.29 67.99,46.33 67.88,46.37 C67.68,46.43 67.48,46.50 67.28,46.58 C67.15,46.63 67.03,46.68 66.90,46.73 C66.47,46.91 66.04,47.12 65.63,47.36 C65.50,47.44 65.36,47.52 65.22,47.60 C65.10,47.69 64.97,47.77 64.84,47.86 C64.71,47.95 64.57,48.04 64.44,48.14 L64.43,48.14 C63.73,47.61 62.98,47.17 62.18,46.81 C62.06,46.76 61.93,46.70 61.81,46.65 C61.62,46.58 61.43,46.50 61.23,46.44 C61.00,46.36 60.77,46.29 60.54,46.22 C60.35,46.16 60.16,46.11 59.96,46.07 C59.83,46.04 59.69,46.01 59.55,45.99 C59.40,45.96 59.25,45.93 59.10,45.90 C58.79,45.86 58.48,45.82 58.18,45.80 C57.87,45.77 57.56,45.76 57.26,45.76 C57.22,45.76 57.18,45.76 57.14,45.77 C57.12,45.77 57.11,45.77 57.10,45.77 C56.95,45.77 56.81,45.77 56.67,45.78 C56.65,45.78 56.63,45.78 56.62,45.78 C56.49,45.78 56.37,45.79 56.25,45.80 C56.22,45.80 56.20,45.81 56.18,45.81 C56.14,45.82 56.11,45.82 56.08,45.82 C55.97,45.84 55.85,45.85 55.74,45.87 C55.70,45.87 55.66,45.88 55.62,45.88 C55.51,45.89 55.40,45.91 55.30,45.93 C55.26,45.94 55.22,45.94 55.19,45.95 C55.16,45.95 55.12,45.96 55.10,45.97 C54.80,46.02 54.51,46.09 54.22,46.16 C54.17,46.18 54.11,46.19 54.05,46.21 C53.90,46.25 53.75,46.29 53.60,46.34 C53.46,46.39 53.30,46.44 53.16,46.49 C52.37,46.79 51.62,47.16 50.91,47.61 C50.82,47.43 50.72,47.25 50.62,47.07 C50.52,46.90 50.42,46.73 50.32,46.57 C50.22,46.40 50.11,46.23 50.00,46.07 C49.90,45.92 49.80,45.78 49.70,45.64 C49.67,45.59 49.63,45.54 49.60,45.50 C49.51,45.37 49.41,45.23 49.30,45.10 C49.30,45.09 49.29,45.09 49.29,45.08 C49.17,44.93 49.05,44.78 48.92,44.64 C48.90,44.60 48.87,44.57 48.84,44.54 C52.11,36.53 60.49,31.74 69.14,33.07 C73.32,33.71 77.11,35.71 79.98,38.75 C79.95,38.78 79.91,38.80 79.89,38.84 C79.75,38.96 79.61,39.09 79.48,39.21 M83.69,37.94 C83.37,37.55 83.05,37.17 82.72,36.79 C79.30,33.03 74.71,30.55 69.64,29.77 C59.88,28.27 50.42,33.40 46.27,42.13 C46.26,42.13 46.26,42.13 46.26,42.13 C45.92,42.85 45.61,43.59 45.35,44.36 L45.00,45.33 L45.73,46.07 C47.04,47.41 48.05,49.04 48.65,50.80 L49.50,53.26 L51.38,51.46 C53.32,49.62 55.94,48.80 58.59,49.20 C58.81,49.23 59.03,49.28 59.25,49.33 C59.46,49.38 59.68,49.43 59.89,49.50 C60.10,49.57 60.30,49.64 60.51,49.73 C60.61,49.77 60.71,49.81 60.81,49.85 C61.01,49.94 61.21,50.04 61.40,50.14 C61.59,50.25 61.78,50.36 61.97,50.49 C62.24,50.66 62.51,50.86 62.77,51.07 L62.77,51.08 C62.94,51.22 63.10,51.37 63.27,51.53 C63.32,51.58 63.38,51.64 63.43,51.69 L64.42,52.64 L65.58,51.53 C65.97,51.16 66.39,50.83 66.83,50.54 C66.90,50.49 66.98,50.44 67.05,50.40 C67.42,50.17 67.80,49.98 68.20,49.81 C68.29,49.77 68.39,49.73 68.48,49.70 C68.58,49.66 68.67,49.62 68.77,49.59 C69.02,49.51 69.27,49.43 69.52,49.37 C69.63,49.35 69.75,49.33 69.86,49.30 C69.99,49.27 70.13,49.25 70.27,49.23 C70.37,49.22 70.48,49.20 70.58,49.19 C70.67,49.18 70.77,49.17 70.86,49.17 C70.95,49.15 71.04,49.15 71.13,49.15 C71.26,49.14 71.38,49.14 71.51,49.14 C71.95,49.14 72.39,49.17 72.83,49.24 C73.83,49.39 74.79,49.72 75.68,50.20 L77.87,51.39 L78.13,48.90 C78.14,48.83 78.15,48.77 78.16,48.69 C78.62,45.70 80.09,43.06 82.33,41.13 C82.65,40.85 82.98,40.59 83.33,40.34 C83.33,40.34 83.34,40.34 83.34,40.34 C83.35,40.33 83.37,40.32 83.38,40.31 L84.78,39.33 L83.69,37.94" fill="#FFFFFF"/>
<path d="M115.44,60.78 L114.00,61.65 L114.88,63.09 C115.94,64.81 116.35,66.85 116.04,68.86 C115.32,73.54 110.94,76.77 106.26,76.05 C103.88,75.68 101.75,74.33 100.43,72.33 L98.98,70.15 L97.61,72.38 C94.97,76.72 90.02,79.02 85.00,78.26 C79.50,77.41 75.28,73.15 74.49,67.66 L74.25,66.02 L72.62,66.24 C71.84,66.34 71.04,66.34 70.23,66.21 C68.99,66.02 67.82,65.57 66.79,64.89 C66.81,64.86 66.83,64.84 66.84,64.82 C66.94,64.68 67.05,64.54 67.14,64.40 C67.23,64.27 67.31,64.15 67.39,64.02 C67.65,63.61 67.88,63.19 68.09,62.75 C68.15,62.60 68.22,62.45 68.28,62.30 C68.47,61.86 68.63,61.40 68.76,60.93 C68.81,60.77 68.85,60.62 68.88,60.46 C68.92,60.30 68.96,60.14 68.99,59.98 C69.02,59.82 69.05,59.66 69.07,59.49 C69.19,58.73 69.23,57.97 69.20,57.21 C69.20,57.13 69.20,57.06 69.19,56.99 C69.18,56.87 69.18,56.76 69.16,56.65 C69.15,56.43 69.12,56.21 69.09,55.99 C69.07,55.88 69.06,55.78 69.04,55.67 C69.02,55.54 68.99,55.42 68.96,55.30 C68.94,55.14 68.90,54.99 68.86,54.84 C68.84,54.72 68.81,54.60 68.77,54.49 C68.74,54.36 68.70,54.24 68.66,54.12 C68.63,54.01 68.60,53.90 68.55,53.79 C68.52,53.69 68.48,53.58 68.44,53.48 C68.38,53.31 68.31,53.14 68.24,52.98 C68.19,52.85 68.13,52.72 68.07,52.59 C67.73,51.87 67.32,51.18 66.83,50.54 C66.90,50.49 66.98,50.45 67.05,50.40 C67.42,50.17 67.80,49.98 68.20,49.81 C68.29,49.77 68.39,49.73 68.48,49.70 C68.58,49.66 68.67,49.63 68.77,49.59 C69.02,49.51 69.27,49.44 69.52,49.37 C69.63,49.35 69.75,49.33 69.86,49.30 C69.99,49.27 70.13,49.25 70.27,49.23 C70.37,49.22 70.47,49.20 70.58,49.19 C70.67,49.18 70.77,49.17 70.86,49.17 C70.95,49.15 71.04,49.15 71.13,49.15 C71.26,49.14 71.38,49.14 71.51,49.14 C71.95,49.14 72.39,49.17 72.83,49.24 C73.83,49.39 74.79,49.72 75.68,50.20 L77.87,51.39 L78.13,48.90 C78.14,48.83 78.15,48.77 78.16,48.69 C78.62,45.70 80.09,43.06 82.33,41.13 C82.65,40.85 82.98,40.59 83.33,40.34 C83.33,40.34 83.34,40.34 83.34,40.34 C83.35,40.33 83.37,40.32 83.38,40.31 C86.03,38.46 89.25,37.71 92.44,38.20 C92.81,38.26 93.17,38.33 93.53,38.42 C93.96,38.52 94.39,38.65 94.80,38.80 C97.52,39.77 99.83,41.68 101.32,44.18 C101.76,44.92 102.13,45.71 102.41,46.52 L103.25,48.97 L105.13,47.19 C105.78,46.57 106.51,46.07 107.31,45.68 C108.86,44.92 110.61,44.66 112.35,44.92 C114.61,45.27 116.61,46.48 117.96,48.33 C119.32,50.17 119.88,52.44 119.53,54.71 C119.15,57.24 117.65,59.46 115.44,60.78 M122.83,55.21 C123.31,52.07 122.54,48.92 120.66,46.35 C118.77,43.78 116.00,42.11 112.85,41.63 C110.44,41.25 108.01,41.62 105.85,42.68 C105.44,42.88 105.05,43.10 104.67,43.34 C104.52,43.05 104.36,42.75 104.18,42.46 C102.66,39.91 100.44,37.84 97.84,36.49 C97.23,36.17 96.59,35.89 95.94,35.66 C95.46,35.49 94.97,35.34 94.47,35.21 C93.97,35.08 93.47,34.98 92.95,34.90 C89.39,34.36 85.81,35.03 82.72,36.79 C82.27,37.04 81.84,37.32 81.42,37.61 C80.88,37.99 80.37,38.40 79.89,38.84 C79.75,38.96 79.61,39.09 79.48,39.22 C79.38,39.31 79.28,39.40 79.19,39.50 C79.04,39.65 78.90,39.80 78.76,39.96 C78.56,40.17 78.37,40.39 78.19,40.62 C78.11,40.72 78.03,40.82 77.96,40.92 C77.78,41.14 77.62,41.36 77.47,41.58 C77.39,41.70 77.31,41.82 77.24,41.94 C77.09,42.16 76.95,42.38 76.82,42.61 C76.70,42.81 76.59,43.01 76.49,43.21 C76.30,43.57 76.13,43.94 75.97,44.31 C75.92,44.42 75.88,44.53 75.84,44.64 C75.81,44.70 75.78,44.78 75.75,44.84 C75.70,44.99 75.64,45.14 75.59,45.29 C75.46,45.66 75.34,46.02 75.24,46.40 C75.09,46.34 74.93,46.30 74.78,46.25 C74.46,46.17 74.14,46.09 73.82,46.03 C73.66,46.00 73.50,45.97 73.34,45.94 C72.39,45.80 71.43,45.77 70.49,45.84 C70.39,45.85 70.29,45.86 70.19,45.87 C70.08,45.89 69.97,45.90 69.85,45.92 C69.82,45.92 69.79,45.92 69.77,45.93 C69.67,45.94 69.57,45.96 69.47,45.98 C69.36,46.00 69.26,46.01 69.15,46.04 C68.84,46.10 68.53,46.17 68.23,46.26 C68.11,46.30 67.99,46.33 67.88,46.37 C67.68,46.43 67.48,46.50 67.28,46.58 C67.15,46.63 67.03,46.68 66.90,46.73 C66.47,46.91 66.04,47.12 65.63,47.36 C65.50,47.44 65.36,47.52 65.22,47.61 C65.10,47.69 64.97,47.77 64.84,47.86 C64.71,47.95 64.57,48.04 64.44,48.14 L64.43,48.14 C64.03,48.44 63.64,48.77 63.28,49.12 L62.03,50.31 L63.26,51.52 L63.27,51.53 C63.32,51.58 63.38,51.64 63.43,51.69 C63.60,51.86 63.74,52.02 63.88,52.18 C65.46,54.07 66.15,56.55 65.78,58.99 C65.62,60.05 65.26,61.04 64.74,61.95 C64.63,62.15 64.50,62.35 64.37,62.54 C64.24,62.73 64.10,62.92 63.95,63.10 C63.73,63.37 63.49,63.63 63.23,63.88 L63.22,63.89 L61.98,65.07 L63.22,66.27 C63.77,66.80 64.35,67.27 64.97,67.68 C66.40,68.62 68.01,69.25 69.73,69.51 C70.31,69.60 70.90,69.65 71.48,69.65 C72.99,75.86 78.06,80.57 84.50,81.55 C85.31,81.68 86.12,81.74 86.92,81.74 C91.64,81.74 96.11,79.63 99.13,75.99 C100.90,77.77 103.22,78.96 105.75,79.34 C112.25,80.34 118.35,75.86 119.34,69.37 C119.68,67.11 119.37,64.81 118.46,62.74 C120.80,60.88 122.37,58.21 122.83,55.21" fill="#FFFFFF"/>
</svg>