<svg xmlns="http://www.w3.org/2000/svg" viewBox="0 0 60.6 101.5">
<path d="M14.98,37.63 C14.10,35.71 13.62,33.61 13.64,31.53 C14.15,33.54 14.87,35.44 15.87,37.18 C18.85,42.49 24.37,45.95 30.41,46.64 C24.05,47.46 17.55,43.44 14.98,37.63 M49.25,26.42 C45.20,29.68 38.79,32.47 30.78,27.96 C20.96,22.44 14.57,24.59 11.59,26.42 C11.33,28.18 11.31,29.98 11.53,31.78 C12.10,36.55 14.36,40.89 17.89,44.01 C21.36,47.07 25.81,48.76 30.41,48.76 C32.12,48.76 33.84,48.53 35.53,48.07 C39.47,46.96 42.89,44.64 45.42,41.35 C47.94,38.07 49.33,34.16 49.45,30.02 L49.45,30.00 C49.49,28.82 49.42,27.62 49.25,26.42" fill="#FFFFFF"/>
<path d="M9.80,32.45 C9.53,30.22 9.60,27.93 10.03,25.71 C10.13,25.04 11.04,21.50 11.21,20.76 C12.37,15.91 13.53,10.99 14.60,6.09 L46.25,6.09 C47.61,12.33 49.11,18.60 50.62,24.76 C51.06,26.65 51.26,28.59 51.19,30.53 C50.95,39.67 44.82,47.72 36.00,50.20 C23.59,53.59 11.34,45.19 9.80,32.45 M38.32,91.52 C34.99,91.28 32.41,88.50 32.41,85.16 C32.41,78.60 32.41,69.12 32.41,69.12 C32.41,61.91 36.29,55.30 42.50,51.65 C44.00,50.76 45.42,49.70 46.73,48.46 C53.05,42.61 55.64,33.42 53.43,25.12 C53.30,24.64 53.12,24.03 52.97,23.56 C51.08,17.75 49.13,11.88 47.08,6.09 L46.68,5.00 L14.16,5.00 L13.76,6.09 C12.11,10.75 10.53,15.47 8.99,20.12 C8.62,21.27 8.07,22.93 7.71,24.07 C5.00,32.63 7.51,42.35 14.11,48.46 C15.42,49.71 16.84,50.77 18.34,51.65 C24.56,55.30 28.43,61.91 28.43,69.12 L28.43,85.16 C28.43,88.50 25.86,91.28 22.52,91.52 C16.65,91.95 12.62,92.83 12.62,93.85 C12.62,95.29 20.59,96.46 30.42,96.46 L30.42,96.46 L30.42,96.46 L30.42,96.46 C40.25,96.45 48.22,95.29 48.22,93.85 C48.22,92.83 44.19,91.95 38.32,91.52" fill="#FFFFFF"/>
</svg>